<svg width="120" height="122" viewBox="0 0 120 122" fill="none" xmlns="http://www.w3.org/2000/svg">
<path d="M30.2712 17.8551L26.302 20.6663L27.0041 23.208L25.7507 24.0958L22.6324 12.717L24.0034 11.746L33.6893 18.4732L32.4358 19.361L30.2712 17.8551ZM29.2474 17.1293L24.3471 13.6985L25.9571 19.4597L29.2474 17.1293ZM43.7205 4.4054L46.4235 12.7463L45.0384 13.1952L44.6389 11.9623C44.5132 12.474 44.2513 12.9289 43.8533 13.327C43.4622 13.7116 42.9825 13.996 42.4143 14.1802C41.7648 14.3906 41.1386 14.4478 40.5356 14.3517C39.9293 14.2454 39.3868 13.9727 38.9081 13.5336C38.4396 13.0911 38.0804 12.4843 37.8304 11.7131L36.2471 6.82728L37.617 6.38335L39.1411 11.0865C39.4075 11.9085 39.821 12.4753 40.3817 12.7869C40.9392 13.0884 41.5781 13.1224 42.2986 12.8889C43.0393 12.6489 43.5488 12.2315 43.827 11.6368C44.1052 11.042 44.1029 10.3083 43.8201 9.43569L42.3354 4.85426L43.7205 4.4054ZM54.4981 3.22112L54.8077 8.37984C54.8333 8.80574 54.942 9.10376 55.1338 9.27391C55.3251 9.4334 55.6443 9.49973 56.0915 9.47289L57.1616 9.40867L57.2354 10.6385L55.9257 10.7171C55.1165 10.7656 54.4984 10.6157 54.0714 10.2673C53.6445 9.91896 53.4054 9.31887 53.3543 8.46707L53.0447 3.30835L51.9107 3.37641L51.8388 2.17856L52.9728 2.11051L52.8405 -0.0935278L54.2939 -0.180757L54.4262 2.02328L56.7101 1.8862L56.782 3.08405L54.4981 3.22112ZM67.3135 11.4387C66.5073 11.2815 65.8102 10.9554 65.2221 10.4604C64.6444 9.96738 64.2324 9.34911 63.9862 8.60558C63.7524 7.85361 63.7223 7.03267 63.8958 6.14277C64.0673 5.26333 64.4068 4.52533 64.9143 3.92876C65.4344 3.32377 66.0589 2.9076 66.7879 2.68024C67.5189 2.44241 68.2928 2.4031 69.1094 2.56233C69.926 2.72155 70.6284 3.04868 71.2165 3.54371C71.8067 4.02828 72.2249 4.64233 72.4712 5.38587C72.7279 6.13145 72.7695 6.94919 72.596 7.8391C72.4225 8.72901 72.0705 9.47544 71.5399 10.0784C71.0219 10.6729 70.3922 11.0881 69.6507 11.3238C68.9092 11.5596 68.1301 11.5979 67.3135 11.4387ZM67.5584 10.1824C68.0715 10.2824 68.5765 10.2559 69.0737 10.1029C69.5708 9.94984 70.0024 9.65906 70.3685 9.23054C70.7451 8.80406 71.0008 8.24532 71.1355 7.55434C71.2702 6.86335 71.2484 6.25052 71.0701 5.71584C70.8918 5.18117 70.6053 4.7558 70.2104 4.43974C69.8177 4.11321 69.3648 3.89993 68.8518 3.7999C68.3283 3.69784 67.8232 3.72434 67.3366 3.8794C66.8624 4.02603 66.4475 4.31463 66.0919 4.7452C65.7362 5.17576 65.491 5.73654 65.3563 6.42753C65.2196 7.12899 65.2299 7.74501 65.3872 8.2756C65.5551 8.80823 65.8301 9.23679 66.2124 9.56129C66.5968 9.87531 67.0454 10.0823 67.5584 10.1824ZM91.6347 11.7706C92.2153 12.1298 92.6565 12.5722 92.9584 13.0977C93.266 13.6142 93.4026 14.1942 93.3681 14.8377C93.3337 15.4812 93.1032 16.1477 92.6766 16.837L89.957 21.2316L88.7325 20.4738L91.3426 16.2561C91.8029 15.5123 91.9678 14.8304 91.8372 14.2102C91.7214 13.5866 91.3506 13.0811 90.7247 12.6938C90.0807 12.2953 89.4391 12.1868 88.8 12.3683C88.1664 12.5407 87.6083 13.0169 87.1256 13.797L84.5829 17.9058L83.3584 17.1481L85.9684 12.9304C86.4287 12.1866 86.5936 11.5046 86.4631 10.8845C86.3472 10.2609 85.9764 9.7554 85.3505 9.3681C84.7065 8.96957 84.0649 8.86105 83.4258 9.04253C82.7922 9.21495 82.2341 9.69119 81.7514 10.4712L79.2087 14.5801L77.9706 13.8139L82.5845 6.35809L83.8226 7.12428L83.1575 8.19911C83.6437 7.96064 84.1555 7.86339 84.6928 7.90736C85.2391 7.95694 85.7617 8.13609 86.2606 8.44481C86.8864 8.83211 87.3527 9.3151 87.6594 9.89377C87.9662 10.4724 88.069 11.1069 87.9681 11.797C88.5023 11.4 89.0995 11.2052 89.7599 11.2124C90.4202 11.2197 91.0452 11.4057 91.6347 11.7706ZM98.6752 22.0603C99.3868 21.5158 100.12 21.1833 100.874 21.0629C101.636 20.936 102.357 21.009 103.036 21.2819C103.721 21.5633 104.301 22.0131 104.774 22.6315C105.241 23.2414 105.514 23.8713 105.595 24.5212C105.676 25.1711 105.602 25.7585 105.373 26.2834L106.643 25.311L107.538 26.48L100.575 31.8087L99.6803 30.6398L100.976 29.6479C100.395 29.7304 99.7933 29.6466 99.1722 29.3966C98.566 29.1487 98.0328 28.724 97.5725 28.1225C97.0993 27.5042 96.8239 26.8284 96.7464 26.0953C96.6688 25.3621 96.7952 24.6409 97.1253 23.9315C97.4555 23.2221 97.9722 22.5984 98.6752 22.0603ZM103.174 27.9657C103.7 27.5638 104.076 27.1078 104.304 26.5978C104.531 26.0879 104.607 25.573 104.532 25.0531C104.471 24.5353 104.276 24.0604 103.945 23.6284C103.615 23.1964 103.211 22.8803 102.736 22.6801C102.26 22.4799 101.747 22.423 101.195 22.5095C100.643 22.5959 100.105 22.8401 99.5796 23.242C99.0459 23.6504 98.661 24.1128 98.425 24.6293C98.1974 25.1393 98.1139 25.6532 98.1744 26.171C98.2433 26.6824 98.4431 27.154 98.7737 27.586C99.1044 28.018 99.5075 28.3341 99.983 28.5343C100.474 28.7365 100.995 28.7944 101.546 28.7079C102.107 28.615 102.649 28.3676 103.174 27.9657ZM112.247 36.3105L107.471 38.2838C107.076 38.4467 106.83 38.6465 106.732 38.8834C106.643 39.1161 106.684 39.4395 106.855 39.8536L107.265 40.8444L106.126 41.3148L105.625 40.1022C105.316 39.3529 105.256 38.7197 105.446 38.2026C105.636 37.6854 106.126 37.2639 106.915 36.9381L111.691 34.9648L111.257 33.9149L112.366 33.4567L112.8 34.5067L114.841 33.6636L115.397 35.0093L113.356 35.8524L114.23 37.967L113.121 38.4252L112.247 36.3105ZM114.072 54.5481C113.797 54.5873 113.505 54.613 113.194 54.6251L112.203 47.6876C111.355 47.8626 110.726 48.2488 110.315 48.8462C109.917 49.4527 109.772 50.136 109.881 50.8963C109.97 51.5193 110.187 52.0163 110.531 52.3874C110.887 52.7675 111.32 53.0073 111.829 53.1069L112.051 54.6591C111.184 54.546 110.436 54.1787 109.809 53.5573C109.192 52.9343 108.809 52.1054 108.662 51.0706C108.544 50.247 108.623 49.4814 108.899 48.7739C109.176 48.077 109.627 47.4954 110.25 47.0293C110.883 46.5616 111.649 46.2636 112.546 46.1353C113.444 46.007 114.256 46.0741 114.983 46.3366C115.71 46.599 116.3 47.0266 116.751 47.6194C117.214 48.2213 117.506 48.9446 117.626 49.7893C117.744 50.613 117.669 51.3672 117.4 52.0521C117.132 52.737 116.705 53.2936 116.12 53.7221C115.546 54.1596 114.864 54.4349 114.072 54.5481ZM114.16 53.0162C114.709 52.9377 115.162 52.7492 115.518 52.4504C115.884 52.1502 116.138 51.7746 116.278 51.3236C116.43 50.8816 116.47 50.4071 116.398 49.9003C116.294 49.1717 115.972 48.5819 115.434 48.1309C114.897 47.6904 114.211 47.4921 113.377 47.5359L114.16 53.0162ZM117.055 81.3913L111.611 75.7548L107.617 74.4277L108.077 73.046L112.07 74.3731L119.81 73.1011L119.3 74.6346L113.073 75.465L117.565 79.8578L117.055 81.3913ZM101.911 86.5791C102.382 85.9063 102.963 85.4017 103.654 85.0652C104.339 84.7376 105.072 84.6122 105.851 84.6891C106.633 84.7809 107.396 85.0867 108.138 85.6067C108.872 86.1205 109.409 86.7305 109.748 87.4365C110.09 88.1575 110.216 88.8972 110.128 89.6557C110.048 90.4203 109.77 91.1434 109.293 91.825C108.816 92.5066 108.232 93.0156 107.54 93.352C106.858 93.6945 106.127 93.8274 105.348 93.7504C104.562 93.6823 103.798 93.3882 103.055 92.8682C102.312 92.3483 101.773 91.7235 101.438 90.9938C101.105 90.279 100.981 89.5349 101.067 88.7616C101.152 87.9882 101.434 87.2607 101.911 86.5791ZM102.959 87.3132C102.66 87.7414 102.479 88.2137 102.417 88.7301C102.355 89.2466 102.445 89.7591 102.688 90.2677C102.925 90.785 103.332 91.2455 103.908 91.6492C104.485 92.053 105.054 92.2819 105.615 92.3361C106.176 92.3903 106.681 92.3012 107.13 92.0688C107.588 91.8424 107.967 91.5152 108.267 91.087C108.573 90.6501 108.753 90.1778 108.809 89.6701C108.868 89.1772 108.773 88.6809 108.524 88.181C108.275 87.6812 107.862 87.2294 107.285 86.8257C106.7 86.4158 106.132 86.1751 105.584 86.1034C105.029 86.0405 104.525 86.1178 104.074 86.3354C103.631 86.5591 103.259 86.885 102.959 87.3132ZM94.741 107.115L89.3371 100.21L90.4836 99.313L91.2824 100.334C91.2247 99.8099 91.3143 99.2927 91.5513 98.7822C91.7865 98.2865 92.1393 97.8547 92.6097 97.4865C93.1473 97.0658 93.7158 96.797 94.3151 96.6801C94.921 96.5716 95.5242 96.6413 96.1246 96.8893C96.7166 97.1438 97.2624 97.5903 97.7621 98.2287L100.928 102.273L99.7935 103.161L96.7464 99.2674C96.2139 98.587 95.6308 98.1968 94.9972 98.0967C94.3701 98.0051 93.7584 98.1926 93.162 98.6594C92.5488 99.1393 92.2137 99.7063 92.1567 100.36C92.0998 101.015 92.354 101.703 92.9194 102.425L95.8876 106.218L94.741 107.115ZM85.2265 111.598C85.1917 112.159 85.0145 112.661 84.6947 113.103C84.3652 113.548 83.8874 113.907 83.2614 114.18L82.6615 112.8L83.0136 112.647C84.5102 111.996 84.9053 110.859 84.1991 109.235L82.2973 104.863L83.6325 104.282L87.1297 112.323L85.7945 112.903L85.2265 111.598ZM57.5637 117.647C57.5762 116.719 57.9065 115.95 58.5547 115.34C59.1922 114.741 60.1615 114.45 61.4627 114.467L63.6065 114.496L63.669 109.84L65.1248 109.86L64.9753 121.011L61.3756 120.962C60.117 120.946 59.1665 120.629 58.5241 120.012C57.871 119.395 57.5508 118.607 57.5637 117.647ZM61.4466 115.667C60.636 115.656 60.0364 115.824 59.6477 116.171C59.259 116.518 59.0603 117.016 59.0516 117.667C59.0331 119.043 59.8132 119.741 61.3917 119.763L63.5355 119.791L63.5904 115.696L61.4466 115.667ZM50.5 113.689C50.2279 114.542 49.817 115.234 49.2673 115.764C48.7144 116.305 48.0815 116.657 47.3685 116.822C46.6453 116.983 45.9128 116.945 45.1709 116.709C44.4392 116.475 43.8543 116.115 43.4161 115.629C42.9779 115.142 42.7028 114.617 42.5909 114.056L42.1049 115.58L40.7024 115.133L43.3658 106.779L44.7682 107.226L44.2725 108.781C44.7024 108.381 45.2436 108.106 45.8961 107.955C46.5351 107.812 47.2154 107.855 47.937 108.085C48.6788 108.322 49.2913 108.719 49.7742 109.276C50.2572 109.833 50.5661 110.497 50.701 111.267C50.836 112.038 50.769 112.845 50.5 113.689ZM43.4317 111.418C43.2308 112.048 43.1829 112.638 43.2879 113.186C43.3929 113.735 43.625 114.201 43.9843 114.584C44.3301 114.974 44.7622 115.252 45.2805 115.417C45.7988 115.582 46.3102 115.611 46.8148 115.503C47.3194 115.395 47.7733 115.148 48.1764 114.762C48.5795 114.375 48.8815 113.867 49.0824 113.237C49.2865 112.596 49.3376 111.997 49.2359 111.438C49.1308 110.89 48.9054 110.421 48.5596 110.03C48.2105 109.65 47.7768 109.378 47.2585 109.213C46.7402 109.047 46.2288 109.019 45.7242 109.126C45.2062 109.241 44.7456 109.492 44.3425 109.878C43.9362 110.275 43.6326 110.788 43.4317 111.418ZM25.6356 107.302L37.2691 99.6306L38.5111 100.479L34.7018 102.992L32.7306 112.148L31.3962 111.236L33.1304 103.818L26.8776 108.15L25.6356 107.302ZM23.5005 93.3355C24.021 93.9709 24.3498 94.6668 24.4869 95.4232C24.6172 96.1714 24.54 96.9103 24.2553 97.6399C23.9556 98.3681 23.455 99.0195 22.7537 99.5941C22.0606 100.162 21.3283 100.514 20.5569 100.649C19.7704 100.783 19.024 100.705 18.3176 100.415C17.6029 100.132 16.982 99.6687 16.4547 99.0251C15.9274 98.3815 15.5953 97.6815 15.4582 96.9251C15.3129 96.1754 15.3826 95.4358 15.6673 94.7061C15.9452 93.9682 16.4349 93.3119 17.1363 92.7373C17.8376 92.1628 18.5849 91.8125 19.3781 91.6867C20.1563 91.5594 20.9061 91.6414 21.6275 91.9329C22.3489 92.2244 22.9733 92.6919 23.5005 93.3355ZM22.5104 94.1467C22.1792 93.7424 21.7733 93.4406 21.2929 93.2413C20.8124 93.0419 20.2945 92.9905 19.7392 93.0869C19.1772 93.1751 18.6238 93.4422 18.0793 93.8884C17.5347 94.3345 17.1605 94.8204 16.9567 95.3458C16.7529 95.8713 16.7022 96.3817 16.8046 96.877C16.8987 97.379 17.1114 97.8322 17.4426 98.2365C17.7806 98.649 18.1864 98.9508 18.6601 99.1419C19.1188 99.3315 19.6224 99.374 20.171 99.2693C20.7195 99.1646 21.2661 98.8892 21.8107 98.4431C22.3635 97.9901 22.7486 97.5092 22.9659 97.0002C23.1765 96.483 23.2381 95.9775 23.1507 95.4837C23.0551 94.9967 22.8416 94.551 22.5104 94.1467ZM5.67307 80.8619L13.7867 77.5382L14.3386 78.8855L13.1393 79.3768C13.659 79.4636 14.1324 79.6904 14.5593 80.0573C14.9723 80.4184 15.292 80.8753 15.5185 81.428C15.7773 82.0597 15.8814 82.6798 15.831 83.2884C15.7707 83.901 15.5397 84.4624 15.1378 84.9729C14.732 85.4734 14.1539 85.8773 13.4038 86.1846L8.65109 88.1316L8.10522 86.7991L12.6802 84.9249C13.4797 84.5974 14.0138 84.1423 14.2823 83.5597C14.5409 82.9812 14.5267 82.3415 14.2396 81.6407C13.9445 80.9201 13.4899 80.4435 12.8759 80.2109C12.2619 79.9783 11.5304 80.0359 10.6816 80.3836L6.22501 82.2092L5.67307 80.8619ZM3.6825 70.1919L8.80421 69.5017C9.22705 69.4447 9.51622 69.3142 9.67172 69.1103C9.81664 68.9078 9.85918 68.5846 9.79935 68.1406L9.65619 67.0782L10.8772 66.9137L11.0524 68.2139C11.1606 69.0173 11.0568 69.6448 10.741 70.0964C10.4251 70.5479 9.84435 70.8307 8.99866 70.9446L3.87695 71.6348L4.02866 72.7606L2.83941 72.9209L2.6877 71.7951L0.49948 72.09L0.305032 70.647L2.49325 70.3521L2.18769 68.0846L3.37694 67.9244L3.6825 70.1919ZM10.7588 57.5078C10.6927 58.1765 10.522 58.7652 10.2467 59.274C9.96072 59.7816 9.60085 60.1695 9.16706 60.4375C8.72267 60.7044 8.23352 60.8276 7.69962 60.807L7.84749 59.3103C8.2869 59.3108 8.66243 59.1442 8.97408 58.8106C9.28677 58.4663 9.47248 57.997 9.53121 57.4025C9.58575 56.8506 9.50667 56.4033 9.29399 56.0607C9.08131 55.7182 8.7892 55.5285 8.41768 55.4918C8.03554 55.4541 7.73746 55.5961 7.52345 55.918C7.29882 56.2388 7.06114 56.7458 6.81043 57.4392C6.57661 58.07 6.35434 58.5839 6.1436 58.9811C5.92329 59.3667 5.62862 59.6913 5.25957 59.9549C4.88096 60.2069 4.41036 60.3051 3.84776 60.2496C3.40194 60.2055 3.00637 60.0324 2.66106 59.7304C2.31575 59.4283 2.06107 59.0226 1.89701 58.5134C1.72234 58.003 1.66594 57.4347 1.72782 56.8085C1.82325 55.8425 2.14448 55.0864 2.69149 54.5402C3.23851 53.994 3.93872 53.7416 4.79211 53.7831L4.64896 55.232C4.18937 55.2188 3.8048 55.3684 3.49525 55.6808C3.18675 55.9826 3.00471 56.4148 2.94913 56.9774C2.89774 57.4975 2.9683 57.9225 3.1608 58.2523C3.3533 58.5822 3.63001 58.765 3.99092 58.8006C4.27752 58.8289 4.52527 58.7623 4.73417 58.6007C4.9335 58.4275 5.10518 58.2086 5.24922 57.9442C5.38368 57.6681 5.54456 57.2874 5.73184 56.8021C5.96356 56.1926 6.18373 55.6998 6.39238 55.3239C6.5904 54.9469 6.86758 54.6366 7.22392 54.3931C7.5813 54.139 8.02589 54.0329 8.55768 54.0747C9.03536 54.1219 9.45216 54.2971 9.80808 54.6002C10.164 54.9033 10.4293 55.31 10.604 55.8204C10.7691 56.319 10.8207 56.8815 10.7588 57.5078ZM16.4516 36.8394C16.123 37.4499 15.6336 37.8527 14.9834 38.0478C14.3332 38.2429 13.7029 38.1762 13.0924 37.8475C12.4819 37.5189 12.0791 37.0294 11.884 36.3793C11.6889 35.7291 11.7556 35.0988 12.0843 34.4883C12.4003 33.9013 12.8771 33.5219 13.5146 33.3503C14.1648 33.1552 14.7951 33.222 15.4056 33.5506C16.0161 33.8793 16.4189 34.3687 16.614 35.0189C16.8218 35.6456 16.7676 36.2524 16.4516 36.8394Z" fill="black"/>
<path d="M30.2712 17.8551L26.302 20.6663L27.0041 23.208L25.7507 24.0958L22.6324 12.717L24.0034 11.746L33.6893 18.4732L32.4358 19.361L30.2712 17.8551ZM29.2474 17.1293L24.3471 13.6985L25.9571 19.4597L29.2474 17.1293ZM43.7205 4.4054L46.4235 12.7463L45.0384 13.1952L44.6389 11.9623C44.5132 12.474 44.2513 12.9289 43.8533 13.327C43.4622 13.7116 42.9825 13.996 42.4143 14.1802C41.7648 14.3906 41.1386 14.4478 40.5356 14.3517C39.9293 14.2454 39.3868 13.9727 38.9081 13.5336C38.4396 13.0911 38.0804 12.4843 37.8304 11.7131L36.2471 6.82728L37.617 6.38335L39.1411 11.0865C39.4075 11.9085 39.821 12.4753 40.3817 12.7869C40.9392 13.0884 41.5781 13.1224 42.2986 12.8889C43.0393 12.6489 43.5488 12.2315 43.827 11.6368C44.1052 11.042 44.1029 10.3083 43.8201 9.43569L42.3354 4.85426L43.7205 4.4054ZM54.4981 3.22112L54.8077 8.37984C54.8333 8.80574 54.942 9.10376 55.1338 9.27391C55.3251 9.4334 55.6443 9.49973 56.0915 9.47289L57.1616 9.40867L57.2354 10.6385L55.9257 10.7171C55.1165 10.7656 54.4984 10.6157 54.0714 10.2673C53.6445 9.91896 53.4054 9.31887 53.3543 8.46707L53.0447 3.30835L51.9107 3.37641L51.8388 2.17856L52.9728 2.11051L52.8405 -0.0935278L54.2939 -0.180757L54.4262 2.02328L56.7101 1.8862L56.782 3.08405L54.4981 3.22112ZM67.3135 11.4387C66.5073 11.2815 65.8102 10.9554 65.2221 10.4604C64.6444 9.96738 64.2324 9.34911 63.9862 8.60558C63.7524 7.85361 63.7223 7.03267 63.8958 6.14277C64.0673 5.26333 64.4068 4.52533 64.9143 3.92876C65.4344 3.32377 66.0589 2.9076 66.7879 2.68024C67.5189 2.44241 68.2928 2.4031 69.1094 2.56233C69.926 2.72155 70.6284 3.04868 71.2165 3.54371C71.8067 4.02828 72.2249 4.64233 72.4712 5.38587C72.7279 6.13145 72.7695 6.94919 72.596 7.8391C72.4225 8.72901 72.0705 9.47544 71.5399 10.0784C71.0219 10.6729 70.3922 11.0881 69.6507 11.3238C68.9092 11.5596 68.1301 11.5979 67.3135 11.4387ZM67.5584 10.1824C68.0715 10.2824 68.5765 10.2559 69.0737 10.1029C69.5708 9.94984 70.0024 9.65906 70.3685 9.23054C70.7451 8.80406 71.0008 8.24532 71.1355 7.55434C71.2702 6.86335 71.2484 6.25052 71.0701 5.71584C70.8918 5.18117 70.6053 4.7558 70.2104 4.43974C69.8177 4.11321 69.3648 3.89993 68.8518 3.7999C68.3283 3.69784 67.8232 3.72434 67.3366 3.8794C66.8624 4.02603 66.4475 4.31463 66.0919 4.7452C65.7362 5.17576 65.491 5.73654 65.3563 6.42753C65.2196 7.12899 65.2299 7.74501 65.3872 8.2756C65.5551 8.80823 65.8301 9.23679 66.2124 9.56129C66.5968 9.87531 67.0454 10.0823 67.5584 10.1824ZM91.6347 11.7706C92.2153 12.1298 92.6565 12.5722 92.9584 13.0977C93.266 13.6142 93.4026 14.1942 93.3681 14.8377C93.3337 15.4812 93.1032 16.1477 92.6766 16.837L89.957 21.2316L88.7325 20.4738L91.3426 16.2561C91.8029 15.5123 91.9678 14.8304 91.8372 14.2102C91.7214 13.5866 91.3506 13.0811 90.7247 12.6938C90.0807 12.2953 89.4391 12.1868 88.8 12.3683C88.1664 12.5407 87.6083 13.0169 87.1256 13.797L84.5829 17.9058L83.3584 17.1481L85.9684 12.9304C86.4287 12.1866 86.5936 11.5046 86.4631 10.8845C86.3472 10.2609 85.9764 9.7554 85.3505 9.3681C84.7065 8.96957 84.0649 8.86105 83.4258 9.04253C82.7922 9.21495 82.2341 9.69119 81.7514 10.4712L79.2087 14.5801L77.9706 13.8139L82.5845 6.35809L83.8226 7.12428L83.1575 8.19911C83.6437 7.96064 84.1555 7.86339 84.6928 7.90736C85.2391 7.95694 85.7617 8.13609 86.2606 8.44481C86.8864 8.83211 87.3527 9.3151 87.6594 9.89377C87.9662 10.4724 88.069 11.1069 87.9681 11.797C88.5023 11.4 89.0995 11.2052 89.7599 11.2124C90.4202 11.2197 91.0452 11.4057 91.6347 11.7706ZM98.6752 22.0603C99.3868 21.5158 100.12 21.1833 100.874 21.0629C101.636 20.936 102.357 21.009 103.036 21.2819C103.721 21.5633 104.301 22.0131 104.774 22.6315C105.241 23.2414 105.514 23.8713 105.595 24.5212C105.676 25.1711 105.602 25.7585 105.373 26.2834L106.643 25.311L107.538 26.48L100.575 31.8087L99.6803 30.6398L100.976 29.6479C100.395 29.7304 99.7933 29.6466 99.1722 29.3966C98.566 29.1487 98.0328 28.724 97.5725 28.1225C97.0993 27.5042 96.8239 26.8284 96.7464 26.0953C96.6688 25.3621 96.7952 24.6409 97.1253 23.9315C97.4555 23.2221 97.9722 22.5984 98.6752 22.0603ZM103.174 27.9657C103.7 27.5638 104.076 27.1078 104.304 26.5978C104.531 26.0879 104.607 25.573 104.532 25.0531C104.471 24.5353 104.276 24.0604 103.945 23.6284C103.615 23.1964 103.211 22.8803 102.736 22.6801C102.26 22.4799 101.747 22.423 101.195 22.5095C100.643 22.5959 100.105 22.8401 99.5796 23.242C99.0459 23.6504 98.661 24.1128 98.425 24.6293C98.1974 25.1393 98.1139 25.6532 98.1744 26.171C98.2433 26.6824 98.4431 27.154 98.7737 27.586C99.1044 28.018 99.5075 28.3341 99.983 28.5343C100.474 28.7365 100.995 28.7944 101.546 28.7079C102.107 28.615 102.649 28.3676 103.174 27.9657ZM112.247 36.3105L107.471 38.2838C107.076 38.4467 106.83 38.6465 106.732 38.8834C106.643 39.1161 106.684 39.4395 106.855 39.8536L107.265 40.8444L106.126 41.3148L105.625 40.1022C105.316 39.3529 105.256 38.7197 105.446 38.2026C105.636 37.6854 106.126 37.2639 106.915 36.9381L111.691 34.9648L111.257 33.9149L112.366 33.4567L112.8 34.5067L114.841 33.6636L115.397 35.0093L113.356 35.8524L114.23 37.967L113.121 38.4252L112.247 36.3105ZM114.072 54.5481C113.797 54.5873 113.505 54.613 113.194 54.6251L112.203 47.6876C111.355 47.8626 110.726 48.2488 110.315 48.8462C109.917 49.4527 109.772 50.136 109.881 50.8963C109.97 51.5193 110.187 52.0163 110.531 52.3874C110.887 52.7675 111.32 53.0073 111.829 53.1069L112.051 54.6591C111.184 54.546 110.436 54.1787 109.809 53.5573C109.192 52.9343 108.809 52.1054 108.662 51.0706C108.544 50.247 108.623 49.4814 108.899 48.7739C109.176 48.077 109.627 47.4954 110.25 47.0293C110.883 46.5616 111.649 46.2636 112.546 46.1353C113.444 46.007 114.256 46.0741 114.983 46.3366C115.71 46.599 116.3 47.0266 116.751 47.6194C117.214 48.2213 117.506 48.9446 117.626 49.7893C117.744 50.613 117.669 51.3672 117.4 52.0521C117.132 52.737 116.705 53.2936 116.12 53.7221C115.546 54.1596 114.864 54.4349 114.072 54.5481ZM114.16 53.0162C114.709 52.9377 115.162 52.7492 115.518 52.4504C115.884 52.1502 116.138 51.7746 116.278 51.3236C116.43 50.8816 116.47 50.4071 116.398 49.9003C116.294 49.1717 115.972 48.5819 115.434 48.1309C114.897 47.6904 114.211 47.4921 113.377 47.5359L114.16 53.0162ZM117.055 81.3913L111.611 75.7548L107.617 74.4277L108.077 73.046L112.07 74.3731L119.81 73.1011L119.3 74.6346L113.073 75.465L117.565 79.8578L117.055 81.3913ZM101.911 86.5791C102.382 85.9063 102.963 85.4017 103.654 85.0652C104.339 84.7376 105.072 84.6122 105.851 84.6891C106.633 84.7809 107.396 85.0867 108.138 85.6067C108.872 86.1205 109.409 86.7305 109.748 87.4365C110.09 88.1575 110.216 88.8972 110.128 89.6557C110.048 90.4203 109.77 91.1434 109.293 91.825C108.816 92.5066 108.232 93.0156 107.54 93.352C106.858 93.6945 106.127 93.8274 105.348 93.7504C104.562 93.6823 103.798 93.3882 103.055 92.8682C102.312 92.3483 101.773 91.7235 101.438 90.9938C101.105 90.279 100.981 89.5349 101.067 88.7616C101.152 87.9882 101.434 87.2607 101.911 86.5791ZM102.959 87.3132C102.66 87.7414 102.479 88.2137 102.417 88.7301C102.355 89.2466 102.445 89.7591 102.688 90.2677C102.925 90.785 103.332 91.2455 103.908 91.6492C104.485 92.053 105.054 92.2819 105.615 92.3361C106.176 92.3903 106.681 92.3012 107.13 92.0688C107.588 91.8424 107.967 91.5152 108.267 91.087C108.573 90.6501 108.753 90.1778 108.809 89.6701C108.868 89.1772 108.773 88.6809 108.524 88.181C108.275 87.6812 107.862 87.2294 107.285 86.8257C106.7 86.4158 106.132 86.1751 105.584 86.1034C105.029 86.0405 104.525 86.1178 104.074 86.3354C103.631 86.5591 103.259 86.885 102.959 87.3132ZM94.741 107.115L89.3371 100.21L90.4836 99.313L91.2824 100.334C91.2247 99.8099 91.3143 99.2927 91.5513 98.7822C91.7865 98.2865 92.1393 97.8547 92.6097 97.4865C93.1473 97.0658 93.7158 96.797 94.3151 96.6801C94.921 96.5716 95.5242 96.6413 96.1246 96.8893C96.7166 97.1438 97.2624 97.5903 97.7621 98.2287L100.928 102.273L99.7935 103.161L96.7464 99.2674C96.2139 98.587 95.6308 98.1968 94.9972 98.0967C94.3701 98.0051 93.7584 98.1926 93.162 98.6594C92.5488 99.1393 92.2137 99.7063 92.1567 100.36C92.0998 101.015 92.354 101.703 92.9194 102.425L95.8876 106.218L94.741 107.115ZM85.2265 111.598C85.1917 112.159 85.0145 112.661 84.6947 113.103C84.3652 113.548 83.8874 113.907 83.2614 114.18L82.6615 112.8L83.0136 112.647C84.5102 111.996 84.9053 110.859 84.1991 109.235L82.2973 104.863L83.6325 104.282L87.1297 112.323L85.7945 112.903L85.2265 111.598ZM57.5637 117.647C57.5762 116.719 57.9065 115.95 58.5547 115.34C59.1922 114.741 60.1615 114.45 61.4627 114.467L63.6065 114.496L63.669 109.84L65.1248 109.86L64.9753 121.011L61.3756 120.962C60.117 120.946 59.1665 120.629 58.5241 120.012C57.871 119.395 57.5508 118.607 57.5637 117.647ZM61.4466 115.667C60.636 115.656 60.0364 115.824 59.6477 116.171C59.259 116.518 59.0603 117.016 59.0516 117.667C59.0331 119.043 59.8132 119.741 61.3917 119.763L63.5355 119.791L63.5904 115.696L61.4466 115.667ZM50.5 113.689C50.2279 114.542 49.817 115.234 49.2673 115.764C48.7144 116.305 48.0815 116.657 47.3685 116.822C46.6453 116.983 45.9128 116.945 45.1709 116.709C44.4392 116.475 43.8543 116.115 43.4161 115.629C42.9779 115.142 42.7028 114.617 42.5909 114.056L42.1049 115.58L40.7024 115.133L43.3658 106.779L44.7682 107.226L44.2725 108.781C44.7024 108.381 45.2436 108.106 45.8961 107.955C46.5351 107.812 47.2154 107.855 47.937 108.085C48.6788 108.322 49.2913 108.719 49.7742 109.276C50.2572 109.833 50.5661 110.497 50.701 111.267C50.836 112.038 50.769 112.845 50.5 113.689ZM43.4317 111.418C43.2308 112.048 43.1829 112.638 43.2879 113.186C43.3929 113.735 43.625 114.201 43.9843 114.584C44.3301 114.974 44.7622 115.252 45.2805 115.417C45.7988 115.582 46.3102 115.611 46.8148 115.503C47.3194 115.395 47.7733 115.148 48.1764 114.762C48.5795 114.375 48.8815 113.867 49.0824 113.237C49.2865 112.596 49.3376 111.997 49.2359 111.438C49.1308 110.89 48.9054 110.421 48.5596 110.03C48.2105 109.65 47.7768 109.378 47.2585 109.213C46.7402 109.047 46.2288 109.019 45.7242 109.126C45.2062 109.241 44.7456 109.492 44.3425 109.878C43.9362 110.275 43.6326 110.788 43.4317 111.418ZM25.6356 107.302L37.2691 99.6306L38.5111 100.479L34.7018 102.992L32.7306 112.148L31.3962 111.236L33.1304 103.818L26.8776 108.15L25.6356 107.302ZM23.5005 93.3355C24.021 93.9709 24.3498 94.6668 24.4869 95.4232C24.6172 96.1714 24.54 96.9103 24.2553 97.6399C23.9556 98.3681 23.455 99.0195 22.7537 99.5941C22.0606 100.162 21.3283 100.514 20.5569 100.649C19.7704 100.783 19.024 100.705 18.3176 100.415C17.6029 100.132 16.982 99.6687 16.4547 99.0251C15.9274 98.3815 15.5953 97.6815 15.4582 96.9251C15.3129 96.1754 15.3826 95.4358 15.6673 94.7061C15.9452 93.9682 16.4349 93.3119 17.1363 92.7373C17.8376 92.1628 18.5849 91.8125 19.3781 91.6867C20.1563 91.5594 20.9061 91.6414 21.6275 91.9329C22.3489 92.2244 22.9733 92.6919 23.5005 93.3355ZM22.5104 94.1467C22.1792 93.7424 21.7733 93.4406 21.2929 93.2413C20.8124 93.0419 20.2945 92.9905 19.7392 93.0869C19.1772 93.1751 18.6238 93.4422 18.0793 93.8884C17.5347 94.3345 17.1605 94.8204 16.9567 95.3458C16.7529 95.8713 16.7022 96.3817 16.8046 96.877C16.8987 97.379 17.1114 97.8322 17.4426 98.2365C17.7806 98.649 18.1864 98.9508 18.6601 99.1419C19.1188 99.3315 19.6224 99.374 20.171 99.2693C20.7195 99.1646 21.2661 98.8892 21.8107 98.4431C22.3635 97.9901 22.7486 97.5092 22.9659 97.0002C23.1765 96.483 23.2381 95.9775 23.1507 95.4837C23.0551 94.9967 22.8416 94.551 22.5104 94.1467ZM5.67307 80.8619L13.7867 77.5382L14.3386 78.8855L13.1393 79.3768C13.659 79.4636 14.1324 79.6904 14.5593 80.0573C14.9723 80.4184 15.292 80.8753 15.5185 81.428C15.7773 82.0597 15.8814 82.6798 15.831 83.2884C15.7707 83.901 15.5397 84.4624 15.1378 84.9729C14.732 85.4734 14.1539 85.8773 13.4038 86.1846L8.65109 88.1316L8.10522 86.7991L12.6802 84.9249C13.4797 84.5974 14.0138 84.1423 14.2823 83.5597C14.5409 82.9812 14.5267 82.3415 14.2396 81.6407C13.9445 80.9201 13.4899 80.4435 12.8759 80.2109C12.2619 79.9783 11.5304 80.0359 10.6816 80.3836L6.22501 82.2092L5.67307 80.8619ZM3.6825 70.1919L8.80421 69.5017C9.22705 69.4447 9.51622 69.3142 9.67172 69.1103C9.81664 68.9078 9.85918 68.5846 9.79935 68.1406L9.65619 67.0782L10.8772 66.9137L11.0524 68.2139C11.1606 69.0173 11.0568 69.6448 10.741 70.0964C10.4251 70.5479 9.84435 70.8307 8.99866 70.9446L3.87695 71.6348L4.02866 72.7606L2.83941 72.9209L2.6877 71.7951L0.49948 72.09L0.305032 70.647L2.49325 70.3521L2.18769 68.0846L3.37694 67.9244L3.6825 70.1919ZM10.7588 57.5078C10.6927 58.1765 10.522 58.7652 10.2467 59.274C9.96072 59.7816 9.60085 60.1695 9.16706 60.4375C8.72267 60.7044 8.23352 60.8276 7.69962 60.807L7.84749 59.3103C8.2869 59.3108 8.66243 59.1442 8.97408 58.8106C9.28677 58.4663 9.47248 57.997 9.53121 57.4025C9.58575 56.8506 9.50667 56.4033 9.29399 56.0607C9.08131 55.7182 8.7892 55.5285 8.41768 55.4918C8.03554 55.4541 7.73746 55.5961 7.52345 55.918C7.29882 56.2388 7.06114 56.7458 6.81043 57.4392C6.57661 58.07 6.35434 58.5839 6.1436 58.9811C5.92329 59.3667 5.62862 59.6913 5.25957 59.9549C4.88096 60.2069 4.41036 60.3051 3.84776 60.2496C3.40194 60.2055 3.00637 60.0324 2.66106 59.7304C2.31575 59.4283 2.06107 59.0226 1.89701 58.5134C1.72234 58.003 1.66594 57.4347 1.72782 56.8085C1.82325 55.8425 2.14448 55.0864 2.69149 54.5402C3.23851 53.994 3.93872 53.7416 4.79211 53.7831L4.64896 55.232C4.18937 55.2188 3.8048 55.3684 3.49525 55.6808C3.18675 55.9826 3.00471 56.4148 2.94913 56.9774C2.89774 57.4975 2.9683 57.9225 3.1608 58.2523C3.3533 58.5822 3.63001 58.765 3.99092 58.8006C4.27752 58.8289 4.52527 58.7623 4.73417 58.6007C4.9335 58.4275 5.10518 58.2086 5.24922 57.9442C5.38368 57.6681 5.54456 57.2874 5.73184 56.8021C5.96356 56.1926 6.18373 55.6998 6.39238 55.3239C6.5904 54.9469 6.86758 54.6366 7.22392 54.3931C7.5813 54.139 8.02589 54.0329 8.55768 54.0747C9.03536 54.1219 9.45216 54.2971 9.80808 54.6002C10.164 54.9033 10.4293 55.31 10.604 55.8204C10.7691 56.319 10.8207 56.8815 10.7588 57.5078ZM16.4516 36.8394C16.123 37.4499 15.6336 37.8527 14.9834 38.0478C14.3332 38.2429 13.7029 38.1762 13.0924 37.8475C12.4819 37.5189 12.0791 37.0294 11.884 36.3793C11.6889 35.7291 11.7556 35.0988 12.0843 34.4883C12.4003 33.9013 12.8771 33.5219 13.5146 33.3503C14.1648 33.1552 14.7951 33.222 15.4056 33.5506C16.0161 33.8793 16.4189 34.3687 16.614 35.0189C16.8218 35.6456 16.7676 36.2524 16.4516 36.8394Z" fill="black" fill-opacity="0.2"/>
<path d="M30.2712 17.8551L26.302 20.6663L27.0041 23.208L25.7507 24.0958L22.6324 12.717L24.0034 11.746L33.6893 18.4732L32.4358 19.361L30.2712 17.8551ZM29.2474 17.1293L24.3471 13.6985L25.9571 19.4597L29.2474 17.1293ZM43.7205 4.4054L46.4235 12.7463L45.0384 13.1952L44.6389 11.9623C44.5132 12.474 44.2513 12.9289 43.8533 13.327C43.4622 13.7116 42.9825 13.996 42.4143 14.1802C41.7648 14.3906 41.1386 14.4478 40.5356 14.3517C39.9293 14.2454 39.3868 13.9727 38.9081 13.5336C38.4396 13.0911 38.0804 12.4843 37.8304 11.7131L36.2471 6.82728L37.617 6.38335L39.1411 11.0865C39.4075 11.9085 39.821 12.4753 40.3817 12.7869C40.9392 13.0884 41.5781 13.1224 42.2986 12.8889C43.0393 12.6489 43.5488 12.2315 43.827 11.6368C44.1052 11.042 44.1029 10.3083 43.8201 9.43569L42.3354 4.85426L43.7205 4.4054ZM54.4981 3.22112L54.8077 8.37984C54.8333 8.80574 54.942 9.10376 55.1338 9.27391C55.3251 9.4334 55.6443 9.49973 56.0915 9.47289L57.1616 9.40867L57.2354 10.6385L55.9257 10.7171C55.1165 10.7656 54.4984 10.6157 54.0714 10.2673C53.6445 9.91896 53.4054 9.31887 53.3543 8.46707L53.0447 3.30835L51.9107 3.37641L51.8388 2.17856L52.9728 2.11051L52.8405 -0.0935278L54.2939 -0.180757L54.4262 2.02328L56.7101 1.8862L56.782 3.08405L54.4981 3.22112ZM67.3135 11.4387C66.5073 11.2815 65.8102 10.9554 65.2221 10.4604C64.6444 9.96738 64.2324 9.34911 63.9862 8.60558C63.7524 7.85361 63.7223 7.03267 63.8958 6.14277C64.0673 5.26333 64.4068 4.52533 64.9143 3.92876C65.4344 3.32377 66.0589 2.9076 66.7879 2.68024C67.5189 2.44241 68.2928 2.4031 69.1094 2.56233C69.926 2.72155 70.6284 3.04868 71.2165 3.54371C71.8067 4.02828 72.2249 4.64233 72.4712 5.38587C72.7279 6.13145 72.7695 6.94919 72.596 7.8391C72.4225 8.72901 72.0705 9.47544 71.5399 10.0784C71.0219 10.6729 70.3922 11.0881 69.6507 11.3238C68.9092 11.5596 68.1301 11.5979 67.3135 11.4387ZM67.5584 10.1824C68.0715 10.2824 68.5765 10.2559 69.0737 10.1029C69.5708 9.94984 70.0024 9.65906 70.3685 9.23054C70.7451 8.80406 71.0008 8.24532 71.1355 7.55434C71.2702 6.86335 71.2484 6.25052 71.0701 5.71584C70.8918 5.18117 70.6053 4.7558 70.2104 4.43974C69.8177 4.11321 69.3648 3.89993 68.8518 3.7999C68.3283 3.69784 67.8232 3.72434 67.3366 3.8794C66.8624 4.02603 66.4475 4.31463 66.0919 4.7452C65.7362 5.17576 65.491 5.73654 65.3563 6.42753C65.2196 7.12899 65.2299 7.74501 65.3872 8.2756C65.5551 8.80823 65.8301 9.23679 66.2124 9.56129C66.5968 9.87531 67.0454 10.0823 67.5584 10.1824ZM91.6347 11.7706C92.2153 12.1298 92.6565 12.5722 92.9584 13.0977C93.266 13.6142 93.4026 14.1942 93.3681 14.8377C93.3337 15.4812 93.1032 16.1477 92.6766 16.837L89.957 21.2316L88.7325 20.4738L91.3426 16.2561C91.8029 15.5123 91.9678 14.8304 91.8372 14.2102C91.7214 13.5866 91.3506 13.0811 90.7247 12.6938C90.0807 12.2953 89.4391 12.1868 88.8 12.3683C88.1664 12.5407 87.6083 13.0169 87.1256 13.797L84.5829 17.9058L83.3584 17.1481L85.9684 12.9304C86.4287 12.1866 86.5936 11.5046 86.4631 10.8845C86.3472 10.2609 85.9764 9.7554 85.3505 9.3681C84.7065 8.96957 84.0649 8.86105 83.4258 9.04253C82.7922 9.21495 82.2341 9.69119 81.7514 10.4712L79.2087 14.5801L77.9706 13.8139L82.5845 6.35809L83.8226 7.12428L83.1575 8.19911C83.6437 7.96064 84.1555 7.86339 84.6928 7.90736C85.2391 7.95694 85.7617 8.13609 86.2606 8.44481C86.8864 8.83211 87.3527 9.3151 87.6594 9.89377C87.9662 10.4724 88.069 11.1069 87.9681 11.797C88.5023 11.4 89.0995 11.2052 89.7599 11.2124C90.4202 11.2197 91.0452 11.4057 91.6347 11.7706ZM98.6752 22.0603C99.3868 21.5158 100.12 21.1833 100.874 21.0629C101.636 20.936 102.357 21.009 103.036 21.2819C103.721 21.5633 104.301 22.0131 104.774 22.6315C105.241 23.2414 105.514 23.8713 105.595 24.5212C105.676 25.1711 105.602 25.7585 105.373 26.2834L106.643 25.311L107.538 26.48L100.575 31.8087L99.6803 30.6398L100.976 29.6479C100.395 29.7304 99.7933 29.6466 99.1722 29.3966C98.566 29.1487 98.0328 28.724 97.5725 28.1225C97.0993 27.5042 96.8239 26.8284 96.7464 26.0953C96.6688 25.3621 96.7952 24.6409 97.1253 23.9315C97.4555 23.2221 97.9722 22.5984 98.6752 22.0603ZM103.174 27.9657C103.7 27.5638 104.076 27.1078 104.304 26.5978C104.531 26.0879 104.607 25.573 104.532 25.0531C104.471 24.5353 104.276 24.0604 103.945 23.6284C103.615 23.1964 103.211 22.8803 102.736 22.6801C102.26 22.4799 101.747 22.423 101.195 22.5095C100.643 22.5959 100.105 22.8401 99.5796 23.242C99.0459 23.6504 98.661 24.1128 98.425 24.6293C98.1974 25.1393 98.1139 25.6532 98.1744 26.171C98.2433 26.6824 98.4431 27.154 98.7737 27.586C99.1044 28.018 99.5075 28.3341 99.983 28.5343C100.474 28.7365 100.995 28.7944 101.546 28.7079C102.107 28.615 102.649 28.3676 103.174 27.9657ZM112.247 36.3105L107.471 38.2838C107.076 38.4467 106.83 38.6465 106.732 38.8834C106.643 39.1161 106.684 39.4395 106.855 39.8536L107.265 40.8444L106.126 41.3148L105.625 40.1022C105.316 39.3529 105.256 38.7197 105.446 38.2026C105.636 37.6854 106.126 37.2639 106.915 36.9381L111.691 34.9648L111.257 33.9149L112.366 33.4567L112.8 34.5067L114.841 33.6636L115.397 35.0093L113.356 35.8524L114.23 37.967L113.121 38.4252L112.247 36.3105ZM114.072 54.5481C113.797 54.5873 113.505 54.613 113.194 54.6251L112.203 47.6876C111.355 47.8626 110.726 48.2488 110.315 48.8462C109.917 49.4527 109.772 50.136 109.881 50.8963C109.97 51.5193 110.187 52.0163 110.531 52.3874C110.887 52.7675 111.32 53.0073 111.829 53.1069L112.051 54.6591C111.184 54.546 110.436 54.1787 109.809 53.5573C109.192 52.9343 108.809 52.1054 108.662 51.0706C108.544 50.247 108.623 49.4814 108.899 48.7739C109.176 48.077 109.627 47.4954 110.25 47.0293C110.883 46.5616 111.649 46.2636 112.546 46.1353C113.444 46.007 114.256 46.0741 114.983 46.3366C115.71 46.599 116.3 47.0266 116.751 47.6194C117.214 48.2213 117.506 48.9446 117.626 49.7893C117.744 50.613 117.669 51.3672 117.4 52.0521C117.132 52.737 116.705 53.2936 116.12 53.7221C115.546 54.1596 114.864 54.4349 114.072 54.5481ZM114.16 53.0162C114.709 52.9377 115.162 52.7492 115.518 52.4504C115.884 52.1502 116.138 51.7746 116.278 51.3236C116.43 50.8816 116.47 50.4071 116.398 49.9003C116.294 49.1717 115.972 48.5819 115.434 48.1309C114.897 47.6904 114.211 47.4921 113.377 47.5359L114.16 53.0162ZM117.055 81.3913L111.611 75.7548L107.617 74.4277L108.077 73.046L112.07 74.3731L119.81 73.1011L119.3 74.6346L113.073 75.465L117.565 79.8578L117.055 81.3913ZM101.911 86.5791C102.382 85.9063 102.963 85.4017 103.654 85.0652C104.339 84.7376 105.072 84.6122 105.851 84.6891C106.633 84.7809 107.396 85.0867 108.138 85.6067C108.872 86.1205 109.409 86.7305 109.748 87.4365C110.09 88.1575 110.216 88.8972 110.128 89.6557C110.048 90.4203 109.77 91.1434 109.293 91.825C108.816 92.5066 108.232 93.0156 107.54 93.352C106.858 93.6945 106.127 93.8274 105.348 93.7504C104.562 93.6823 103.798 93.3882 103.055 92.8682C102.312 92.3483 101.773 91.7235 101.438 90.9938C101.105 90.279 100.981 89.5349 101.067 88.7616C101.152 87.9882 101.434 87.2607 101.911 86.5791ZM102.959 87.3132C102.66 87.7414 102.479 88.2137 102.417 88.7301C102.355 89.2466 102.445 89.7591 102.688 90.2677C102.925 90.785 103.332 91.2455 103.908 91.6492C104.485 92.053 105.054 92.2819 105.615 92.3361C106.176 92.3903 106.681 92.3012 107.13 92.0688C107.588 91.8424 107.967 91.5152 108.267 91.087C108.573 90.6501 108.753 90.1778 108.809 89.6701C108.868 89.1772 108.773 88.6809 108.524 88.181C108.275 87.6812 107.862 87.2294 107.285 86.8257C106.7 86.4158 106.132 86.1751 105.584 86.1034C105.029 86.0405 104.525 86.1178 104.074 86.3354C103.631 86.5591 103.259 86.885 102.959 87.3132ZM94.741 107.115L89.3371 100.21L90.4836 99.313L91.2824 100.334C91.2247 99.8099 91.3143 99.2927 91.5513 98.7822C91.7865 98.2865 92.1393 97.8547 92.6097 97.4865C93.1473 97.0658 93.7158 96.797 94.3151 96.6801C94.921 96.5716 95.5242 96.6413 96.1246 96.8893C96.7166 97.1438 97.2624 97.5903 97.7621 98.2287L100.928 102.273L99.7935 103.161L96.7464 99.2674C96.2139 98.587 95.6308 98.1968 94.9972 98.0967C94.3701 98.0051 93.7584 98.1926 93.162 98.6594C92.5488 99.1393 92.2137 99.7063 92.1567 100.36C92.0998 101.015 92.354 101.703 92.9194 102.425L95.8876 106.218L94.741 107.115ZM85.2265 111.598C85.1917 112.159 85.0145 112.661 84.6947 113.103C84.3652 113.548 83.8874 113.907 83.2614 114.18L82.6615 112.8L83.0136 112.647C84.5102 111.996 84.9053 110.859 84.1991 109.235L82.2973 104.863L83.6325 104.282L87.1297 112.323L85.7945 112.903L85.2265 111.598ZM57.5637 117.647C57.5762 116.719 57.9065 115.95 58.5547 115.34C59.1922 114.741 60.1615 114.45 61.4627 114.467L63.6065 114.496L63.669 109.84L65.1248 109.86L64.9753 121.011L61.3756 120.962C60.117 120.946 59.1665 120.629 58.5241 120.012C57.871 119.395 57.5508 118.607 57.5637 117.647ZM61.4466 115.667C60.636 115.656 60.0364 115.824 59.6477 116.171C59.259 116.518 59.0603 117.016 59.0516 117.667C59.0331 119.043 59.8132 119.741 61.3917 119.763L63.5355 119.791L63.5904 115.696L61.4466 115.667ZM50.5 113.689C50.2279 114.542 49.817 115.234 49.2673 115.764C48.7144 116.305 48.0815 116.657 47.3685 116.822C46.6453 116.983 45.9128 116.945 45.1709 116.709C44.4392 116.475 43.8543 116.115 43.4161 115.629C42.9779 115.142 42.7028 114.617 42.5909 114.056L42.1049 115.58L40.7024 115.133L43.3658 106.779L44.7682 107.226L44.2725 108.781C44.7024 108.381 45.2436 108.106 45.8961 107.955C46.5351 107.812 47.2154 107.855 47.937 108.085C48.6788 108.322 49.2913 108.719 49.7742 109.276C50.2572 109.833 50.5661 110.497 50.701 111.267C50.836 112.038 50.769 112.845 50.5 113.689ZM43.4317 111.418C43.2308 112.048 43.1829 112.638 43.2879 113.186C43.3929 113.735 43.625 114.201 43.9843 114.584C44.3301 114.974 44.7622 115.252 45.2805 115.417C45.7988 115.582 46.3102 115.611 46.8148 115.503C47.3194 115.395 47.7733 115.148 48.1764 114.762C48.5795 114.375 48.8815 113.867 49.0824 113.237C49.2865 112.596 49.3376 111.997 49.2359 111.438C49.1308 110.89 48.9054 110.421 48.5596 110.03C48.2105 109.65 47.7768 109.378 47.2585 109.213C46.7402 109.047 46.2288 109.019 45.7242 109.126C45.2062 109.241 44.7456 109.492 44.3425 109.878C43.9362 110.275 43.6326 110.788 43.4317 111.418ZM25.6356 107.302L37.2691 99.6306L38.5111 100.479L34.7018 102.992L32.7306 112.148L31.3962 111.236L33.1304 103.818L26.8776 108.15L25.6356 107.302ZM23.5005 93.3355C24.021 93.9709 24.3498 94.6668 24.4869 95.4232C24.6172 96.1714 24.54 96.9103 24.2553 97.6399C23.9556 98.3681 23.455 99.0195 22.7537 99.5941C22.0606 100.162 21.3283 100.514 20.5569 100.649C19.7704 100.783 19.024 100.705 18.3176 100.415C17.6029 100.132 16.982 99.6687 16.4547 99.0251C15.9274 98.3815 15.5953 97.6815 15.4582 96.9251C15.3129 96.1754 15.3826 95.4358 15.6673 94.7061C15.9452 93.9682 16.4349 93.3119 17.1363 92.7373C17.8376 92.1628 18.5849 91.8125 19.3781 91.6867C20.1563 91.5594 20.9061 91.6414 21.6275 91.9329C22.3489 92.2244 22.9733 92.6919 23.5005 93.3355ZM22.5104 94.1467C22.1792 93.7424 21.7733 93.4406 21.2929 93.2413C20.8124 93.0419 20.2945 92.9905 19.7392 93.0869C19.1772 93.1751 18.6238 93.4422 18.0793 93.8884C17.5347 94.3345 17.1605 94.8204 16.9567 95.3458C16.7529 95.8713 16.7022 96.3817 16.8046 96.877C16.8987 97.379 17.1114 97.8322 17.4426 98.2365C17.7806 98.649 18.1864 98.9508 18.6601 99.1419C19.1188 99.3315 19.6224 99.374 20.171 99.2693C20.7195 99.1646 21.2661 98.8892 21.8107 98.4431C22.3635 97.9901 22.7486 97.5092 22.9659 97.0002C23.1765 96.483 23.2381 95.9775 23.1507 95.4837C23.0551 94.9967 22.8416 94.551 22.5104 94.1467ZM5.67307 80.8619L13.7867 77.5382L14.3386 78.8855L13.1393 79.3768C13.659 79.4636 14.1324 79.6904 14.5593 80.0573C14.9723 80.4184 15.292 80.8753 15.5185 81.428C15.7773 82.0597 15.8814 82.6798 15.831 83.2884C15.7707 83.901 15.5397 84.4624 15.1378 84.9729C14.732 85.4734 14.1539 85.8773 13.4038 86.1846L8.65109 88.1316L8.10522 86.7991L12.6802 84.9249C13.4797 84.5974 14.0138 84.1423 14.2823 83.5597C14.5409 82.9812 14.5267 82.3415 14.2396 81.6407C13.9445 80.9201 13.4899 80.4435 12.8759 80.2109C12.2619 79.9783 11.5304 80.0359 10.6816 80.3836L6.22501 82.2092L5.67307 80.8619ZM3.6825 70.1919L8.80421 69.5017C9.22705 69.4447 9.51622 69.3142 9.67172 69.1103C9.81664 68.9078 9.85918 68.5846 9.79935 68.1406L9.65619 67.0782L10.8772 66.9137L11.0524 68.2139C11.1606 69.0173 11.0568 69.6448 10.741 70.0964C10.4251 70.5479 9.84435 70.8307 8.99866 70.9446L3.87695 71.6348L4.02866 72.7606L2.83941 72.9209L2.6877 71.7951L0.49948 72.09L0.305032 70.647L2.49325 70.3521L2.18769 68.0846L3.37694 67.9244L3.6825 70.1919ZM10.7588 57.5078C10.6927 58.1765 10.522 58.7652 10.2467 59.274C9.96072 59.7816 9.60085 60.1695 9.16706 60.4375C8.72267 60.7044 8.23352 60.8276 7.69962 60.807L7.84749 59.3103C8.2869 59.3108 8.66243 59.1442 8.97408 58.8106C9.28677 58.4663 9.47248 57.997 9.53121 57.4025C9.58575 56.8506 9.50667 56.4033 9.29399 56.0607C9.08131 55.7182 8.7892 55.5285 8.41768 55.4918C8.03554 55.4541 7.73746 55.5961 7.52345 55.918C7.29882 56.2388 7.06114 56.7458 6.81043 57.4392C6.57661 58.07 6.35434 58.5839 6.1436 58.9811C5.92329 59.3667 5.62862 59.6913 5.25957 59.9549C4.88096 60.2069 4.41036 60.3051 3.84776 60.2496C3.40194 60.2055 3.00637 60.0324 2.66106 59.7304C2.31575 59.4283 2.06107 59.0226 1.89701 58.5134C1.72234 58.003 1.66594 57.4347 1.72782 56.8085C1.82325 55.8425 2.14448 55.0864 2.69149 54.5402C3.23851 53.994 3.93872 53.7416 4.79211 53.7831L4.64896 55.232C4.18937 55.2188 3.8048 55.3684 3.49525 55.6808C3.18675 55.9826 3.00471 56.4148 2.94913 56.9774C2.89774 57.4975 2.9683 57.9225 3.1608 58.2523C3.3533 58.5822 3.63001 58.765 3.99092 58.8006C4.27752 58.8289 4.52527 58.7623 4.73417 58.6007C4.9335 58.4275 5.10518 58.2086 5.24922 57.9442C5.38368 57.6681 5.54456 57.2874 5.73184 56.8021C5.96356 56.1926 6.18373 55.6998 6.39238 55.3239C6.5904 54.9469 6.86758 54.6366 7.22392 54.3931C7.5813 54.139 8.02589 54.0329 8.55768 54.0747C9.03536 54.1219 9.45216 54.2971 9.80808 54.6002C10.164 54.9033 10.4293 55.31 10.604 55.8204C10.7691 56.319 10.8207 56.8815 10.7588 57.5078ZM16.4516 36.8394C16.123 37.4499 15.6336 37.8527 14.9834 38.0478C14.3332 38.2429 13.7029 38.1762 13.0924 37.8475C12.4819 37.5189 12.0791 37.0294 11.884 36.3793C11.6889 35.7291 11.7556 35.0988 12.0843 34.4883C12.4003 33.9013 12.8771 33.5219 13.5146 33.3503C14.1648 33.1552 14.7951 33.222 15.4056 33.5506C16.0161 33.8793 16.4189 34.3687 16.614 35.0189C16.8218 35.6456 16.7676 36.2524 16.4516 36.8394Z" fill="black" fill-opacity="0.2"/>
<path d="M30.2712 17.8551L26.302 20.6663L27.0041 23.208L25.7507 24.0958L22.6324 12.717L24.0034 11.746L33.6893 18.4732L32.4358 19.361L30.2712 17.8551ZM29.2474 17.1293L24.3471 13.6985L25.9571 19.4597L29.2474 17.1293ZM43.7205 4.4054L46.4235 12.7463L45.0384 13.1952L44.6389 11.9623C44.5132 12.474 44.2513 12.9289 43.8533 13.327C43.4622 13.7116 42.9825 13.996 42.4143 14.1802C41.7648 14.3906 41.1386 14.4478 40.5356 14.3517C39.9293 14.2454 39.3868 13.9727 38.9081 13.5336C38.4396 13.0911 38.0804 12.4843 37.8304 11.7131L36.2471 6.82728L37.617 6.38335L39.1411 11.0865C39.4075 11.9085 39.821 12.4753 40.3817 12.7869C40.9392 13.0884 41.5781 13.1224 42.2986 12.8889C43.0393 12.6489 43.5488 12.2315 43.827 11.6368C44.1052 11.042 44.1029 10.3083 43.8201 9.43569L42.3354 4.85426L43.7205 4.4054ZM54.4981 3.22112L54.8077 8.37984C54.8333 8.80574 54.942 9.10376 55.1338 9.27391C55.3251 9.4334 55.6443 9.49973 56.0915 9.47289L57.1616 9.40867L57.2354 10.6385L55.9257 10.7171C55.1165 10.7656 54.4984 10.6157 54.0714 10.2673C53.6445 9.91896 53.4054 9.31887 53.3543 8.46707L53.0447 3.30835L51.9107 3.37641L51.8388 2.17856L52.9728 2.11051L52.8405 -0.0935278L54.2939 -0.180757L54.4262 2.02328L56.7101 1.8862L56.782 3.08405L54.4981 3.22112ZM67.3135 11.4387C66.5073 11.2815 65.8102 10.9554 65.2221 10.4604C64.6444 9.96738 64.2324 9.34911 63.9862 8.60558C63.7524 7.85361 63.7223 7.03267 63.8958 6.14277C64.0673 5.26333 64.4068 4.52533 64.9143 3.92876C65.4344 3.32377 66.0589 2.9076 66.7879 2.68024C67.5189 2.44241 68.2928 2.4031 69.1094 2.56233C69.926 2.72155 70.6284 3.04868 71.2165 3.54371C71.8067 4.02828 72.2249 4.64233 72.4712 5.38587C72.7279 6.13145 72.7695 6.94919 72.596 7.8391C72.4225 8.72901 72.0705 9.47544 71.5399 10.0784C71.0219 10.6729 70.3922 11.0881 69.6507 11.3238C68.9092 11.5596 68.1301 11.5979 67.3135 11.4387ZM67.5584 10.1824C68.0715 10.2824 68.5765 10.2559 69.0737 10.1029C69.5708 9.94984 70.0024 9.65906 70.3685 9.23054C70.7451 8.80406 71.0008 8.24532 71.1355 7.55434C71.2702 6.86335 71.2484 6.25052 71.0701 5.71584C70.8918 5.18117 70.6053 4.7558 70.2104 4.43974C69.8177 4.11321 69.3648 3.89993 68.8518 3.7999C68.3283 3.69784 67.8232 3.72434 67.3366 3.8794C66.8624 4.02603 66.4475 4.31463 66.0919 4.7452C65.7362 5.17576 65.491 5.73654 65.3563 6.42753C65.2196 7.12899 65.2299 7.74501 65.3872 8.2756C65.5551 8.80823 65.8301 9.23679 66.2124 9.56129C66.5968 9.87531 67.0454 10.0823 67.5584 10.1824ZM91.6347 11.7706C92.2153 12.1298 92.6565 12.5722 92.9584 13.0977C93.266 13.6142 93.4026 14.1942 93.3681 14.8377C93.3337 15.4812 93.1032 16.1477 92.6766 16.837L89.957 21.2316L88.7325 20.4738L91.3426 16.2561C91.8029 15.5123 91.9678 14.8304 91.8372 14.2102C91.7214 13.5866 91.3506 13.0811 90.7247 12.6938C90.0807 12.2953 89.4391 12.1868 88.8 12.3683C88.1664 12.5407 87.6083 13.0169 87.1256 13.797L84.5829 17.9058L83.3584 17.1481L85.9684 12.9304C86.4287 12.1866 86.5936 11.5046 86.4631 10.8845C86.3472 10.2609 85.9764 9.7554 85.3505 9.3681C84.7065 8.96957 84.0649 8.86105 83.4258 9.04253C82.7922 9.21495 82.2341 9.69119 81.7514 10.4712L79.2087 14.5801L77.9706 13.8139L82.5845 6.35809L83.8226 7.12428L83.1575 8.19911C83.6437 7.96064 84.1555 7.86339 84.6928 7.90736C85.2391 7.95694 85.7617 8.13609 86.2606 8.44481C86.8864 8.83211 87.3527 9.3151 87.6594 9.89377C87.9662 10.4724 88.069 11.1069 87.9681 11.797C88.5023 11.4 89.0995 11.2052 89.7599 11.2124C90.4202 11.2197 91.0452 11.4057 91.6347 11.7706ZM98.6752 22.0603C99.3868 21.5158 100.12 21.1833 100.874 21.0629C101.636 20.936 102.357 21.009 103.036 21.2819C103.721 21.5633 104.301 22.0131 104.774 22.6315C105.241 23.2414 105.514 23.8713 105.595 24.5212C105.676 25.1711 105.602 25.7585 105.373 26.2834L106.643 25.311L107.538 26.48L100.575 31.8087L99.6803 30.6398L100.976 29.6479C100.395 29.7304 99.7933 29.6466 99.1722 29.3966C98.566 29.1487 98.0328 28.724 97.5725 28.1225C97.0993 27.5042 96.8239 26.8284 96.7464 26.0953C96.6688 25.3621 96.7952 24.6409 97.1253 23.9315C97.4555 23.2221 97.9722 22.5984 98.6752 22.0603ZM103.174 27.9657C103.7 27.5638 104.076 27.1078 104.304 26.5978C104.531 26.0879 104.607 25.573 104.532 25.0531C104.471 24.5353 104.276 24.0604 103.945 23.6284C103.615 23.1964 103.211 22.8803 102.736 22.6801C102.26 22.4799 101.747 22.423 101.195 22.5095C100.643 22.5959 100.105 22.8401 99.5796 23.242C99.0459 23.6504 98.661 24.1128 98.425 24.6293C98.1974 25.1393 98.1139 25.6532 98.1744 26.171C98.2433 26.6824 98.4431 27.154 98.7737 27.586C99.1044 28.018 99.5075 28.3341 99.983 28.5343C100.474 28.7365 100.995 28.7944 101.546 28.7079C102.107 28.615 102.649 28.3676 103.174 27.9657ZM112.247 36.3105L107.471 38.2838C107.076 38.4467 106.83 38.6465 106.732 38.8834C106.643 39.1161 106.684 39.4395 106.855 39.8536L107.265 40.8444L106.126 41.3148L105.625 40.1022C105.316 39.3529 105.256 38.7197 105.446 38.2026C105.636 37.6854 106.126 37.2639 106.915 36.9381L111.691 34.9648L111.257 33.9149L112.366 33.4567L112.8 34.5067L114.841 33.6636L115.397 35.0093L113.356 35.8524L114.23 37.967L113.121 38.4252L112.247 36.3105ZM114.072 54.5481C113.797 54.5873 113.505 54.613 113.194 54.6251L112.203 47.6876C111.355 47.8626 110.726 48.2488 110.315 48.8462C109.917 49.4527 109.772 50.136 109.881 50.8963C109.97 51.5193 110.187 52.0163 110.531 52.3874C110.887 52.7675 111.32 53.0073 111.829 53.1069L112.051 54.6591C111.184 54.546 110.436 54.1787 109.809 53.5573C109.192 52.9343 108.809 52.1054 108.662 51.0706C108.544 50.247 108.623 49.4814 108.899 48.7739C109.176 48.077 109.627 47.4954 110.25 47.0293C110.883 46.5616 111.649 46.2636 112.546 46.1353C113.444 46.007 114.256 46.0741 114.983 46.3366C115.71 46.599 116.3 47.0266 116.751 47.6194C117.214 48.2213 117.506 48.9446 117.626 49.7893C117.744 50.613 117.669 51.3672 117.4 52.0521C117.132 52.737 116.705 53.2936 116.12 53.7221C115.546 54.1596 114.864 54.4349 114.072 54.5481ZM114.16 53.0162C114.709 52.9377 115.162 52.7492 115.518 52.4504C115.884 52.1502 116.138 51.7746 116.278 51.3236C116.43 50.8816 116.47 50.4071 116.398 49.9003C116.294 49.1717 115.972 48.5819 115.434 48.1309C114.897 47.6904 114.211 47.4921 113.377 47.5359L114.16 53.0162ZM117.055 81.3913L111.611 75.7548L107.617 74.4277L108.077 73.046L112.07 74.3731L119.81 73.1011L119.3 74.6346L113.073 75.465L117.565 79.8578L117.055 81.3913ZM101.911 86.5791C102.382 85.9063 102.963 85.4017 103.654 85.0652C104.339 84.7376 105.072 84.6122 105.851 84.6891C106.633 84.7809 107.396 85.0867 108.138 85.6067C108.872 86.1205 109.409 86.7305 109.748 87.4365C110.09 88.1575 110.216 88.8972 110.128 89.6557C110.048 90.4203 109.77 91.1434 109.293 91.825C108.816 92.5066 108.232 93.0156 107.54 93.352C106.858 93.6945 106.127 93.8274 105.348 93.7504C104.562 93.6823 103.798 93.3882 103.055 92.8682C102.312 92.3483 101.773 91.7235 101.438 90.9938C101.105 90.279 100.981 89.5349 101.067 88.7616C101.152 87.9882 101.434 87.2607 101.911 86.5791ZM102.959 87.3132C102.66 87.7414 102.479 88.2137 102.417 88.7301C102.355 89.2466 102.445 89.7591 102.688 90.2677C102.925 90.785 103.332 91.2455 103.908 91.6492C104.485 92.053 105.054 92.2819 105.615 92.3361C106.176 92.3903 106.681 92.3012 107.13 92.0688C107.588 91.8424 107.967 91.5152 108.267 91.087C108.573 90.6501 108.753 90.1778 108.809 89.6701C108.868 89.1772 108.773 88.6809 108.524 88.181C108.275 87.6812 107.862 87.2294 107.285 86.8257C106.7 86.4158 106.132 86.1751 105.584 86.1034C105.029 86.0405 104.525 86.1178 104.074 86.3354C103.631 86.5591 103.259 86.885 102.959 87.3132ZM94.741 107.115L89.3371 100.21L90.4836 99.313L91.2824 100.334C91.2247 99.8099 91.3143 99.2927 91.5513 98.7822C91.7865 98.2865 92.1393 97.8547 92.6097 97.4865C93.1473 97.0658 93.7158 96.797 94.3151 96.6801C94.921 96.5716 95.5242 96.6413 96.1246 96.8893C96.7166 97.1438 97.2624 97.5903 97.7621 98.2287L100.928 102.273L99.7935 103.161L96.7464 99.2674C96.2139 98.587 95.6308 98.1968 94.9972 98.0967C94.3701 98.0051 93.7584 98.1926 93.162 98.6594C92.5488 99.1393 92.2137 99.7063 92.1567 100.36C92.0998 101.015 92.354 101.703 92.9194 102.425L95.8876 106.218L94.741 107.115ZM85.2265 111.598C85.1917 112.159 85.0145 112.661 84.6947 113.103C84.3652 113.548 83.8874 113.907 83.2614 114.18L82.6615 112.8L83.0136 112.647C84.5102 111.996 84.9053 110.859 84.1991 109.235L82.2973 104.863L83.6325 104.282L87.1297 112.323L85.7945 112.903L85.2265 111.598ZM57.5637 117.647C57.5762 116.719 57.9065 115.95 58.5547 115.34C59.1922 114.741 60.1615 114.45 61.4627 114.467L63.6065 114.496L63.669 109.84L65.1248 109.86L64.9753 121.011L61.3756 120.962C60.117 120.946 59.1665 120.629 58.5241 120.012C57.871 119.395 57.5508 118.607 57.5637 117.647ZM61.4466 115.667C60.636 115.656 60.0364 115.824 59.6477 116.171C59.259 116.518 59.0603 117.016 59.0516 117.667C59.0331 119.043 59.8132 119.741 61.3917 119.763L63.5355 119.791L63.5904 115.696L61.4466 115.667ZM50.5 113.689C50.2279 114.542 49.817 115.234 49.2673 115.764C48.7144 116.305 48.0815 116.657 47.3685 116.822C46.6453 116.983 45.9128 116.945 45.1709 116.709C44.4392 116.475 43.8543 116.115 43.4161 115.629C42.9779 115.142 42.7028 114.617 42.5909 114.056L42.1049 115.58L40.7024 115.133L43.3658 106.779L44.7682 107.226L44.2725 108.781C44.7024 108.381 45.2436 108.106 45.8961 107.955C46.5351 107.812 47.2154 107.855 47.937 108.085C48.6788 108.322 49.2913 108.719 49.7742 109.276C50.2572 109.833 50.5661 110.497 50.701 111.267C50.836 112.038 50.769 112.845 50.5 113.689ZM43.4317 111.418C43.2308 112.048 43.1829 112.638 43.2879 113.186C43.3929 113.735 43.625 114.201 43.9843 114.584C44.3301 114.974 44.7622 115.252 45.2805 115.417C45.7988 115.582 46.3102 115.611 46.8148 115.503C47.3194 115.395 47.7733 115.148 48.1764 114.762C48.5795 114.375 48.8815 113.867 49.0824 113.237C49.2865 112.596 49.3376 111.997 49.2359 111.438C49.1308 110.89 48.9054 110.421 48.5596 110.03C48.2105 109.65 47.7768 109.378 47.2585 109.213C46.7402 109.047 46.2288 109.019 45.7242 109.126C45.2062 109.241 44.7456 109.492 44.3425 109.878C43.9362 110.275 43.6326 110.788 43.4317 111.418ZM25.6356 107.302L37.2691 99.6306L38.5111 100.479L34.7018 102.992L32.7306 112.148L31.3962 111.236L33.1304 103.818L26.8776 108.15L25.6356 107.302ZM23.5005 93.3355C24.021 93.9709 24.3498 94.6668 24.4869 95.4232C24.6172 96.1714 24.54 96.9103 24.2553 97.6399C23.9556 98.3681 23.455 99.0195 22.7537 99.5941C22.0606 100.162 21.3283 100.514 20.5569 100.649C19.7704 100.783 19.024 100.705 18.3176 100.415C17.6029 100.132 16.982 99.6687 16.4547 99.0251C15.9274 98.3815 15.5953 97.6815 15.4582 96.9251C15.3129 96.1754 15.3826 95.4358 15.6673 94.7061C15.9452 93.9682 16.4349 93.3119 17.1363 92.7373C17.8376 92.1628 18.5849 91.8125 19.3781 91.6867C20.1563 91.5594 20.9061 91.6414 21.6275 91.9329C22.3489 92.2244 22.9733 92.6919 23.5005 93.3355ZM22.5104 94.1467C22.1792 93.7424 21.7733 93.4406 21.2929 93.2413C20.8124 93.0419 20.2945 92.9905 19.7392 93.0869C19.1772 93.1751 18.6238 93.4422 18.0793 93.8884C17.5347 94.3345 17.1605 94.8204 16.9567 95.3458C16.7529 95.8713 16.7022 96.3817 16.8046 96.877C16.8987 97.379 17.1114 97.8322 17.4426 98.2365C17.7806 98.649 18.1864 98.9508 18.6601 99.1419C19.1188 99.3315 19.6224 99.374 20.171 99.2693C20.7195 99.1646 21.2661 98.8892 21.8107 98.4431C22.3635 97.9901 22.7486 97.5092 22.9659 97.0002C23.1765 96.483 23.2381 95.9775 23.1507 95.4837C23.0551 94.9967 22.8416 94.551 22.5104 94.1467ZM5.67307 80.8619L13.7867 77.5382L14.3386 78.8855L13.1393 79.3768C13.659 79.4636 14.1324 79.6904 14.5593 80.0573C14.9723 80.4184 15.292 80.8753 15.5185 81.428C15.7773 82.0597 15.8814 82.6798 15.831 83.2884C15.7707 83.901 15.5397 84.4624 15.1378 84.9729C14.732 85.4734 14.1539 85.8773 13.4038 86.1846L8.65109 88.1316L8.10522 86.7991L12.6802 84.9249C13.4797 84.5974 14.0138 84.1423 14.2823 83.5597C14.5409 82.9812 14.5267 82.3415 14.2396 81.6407C13.9445 80.9201 13.4899 80.4435 12.8759 80.2109C12.2619 79.9783 11.5304 80.0359 10.6816 80.3836L6.22501 82.2092L5.67307 80.8619ZM3.6825 70.1919L8.80421 69.5017C9.22705 69.4447 9.51622 69.3142 9.67172 69.1103C9.81664 68.9078 9.85918 68.5846 9.79935 68.1406L9.65619 67.0782L10.8772 66.9137L11.0524 68.2139C11.1606 69.0173 11.0568 69.6448 10.741 70.0964C10.4251 70.5479 9.84435 70.8307 8.99866 70.9446L3.87695 71.6348L4.02866 72.7606L2.83941 72.9209L2.6877 71.7951L0.49948 72.09L0.305032 70.647L2.49325 70.3521L2.18769 68.0846L3.37694 67.9244L3.6825 70.1919ZM10.7588 57.5078C10.6927 58.1765 10.522 58.7652 10.2467 59.274C9.96072 59.7816 9.60085 60.1695 9.16706 60.4375C8.72267 60.7044 8.23352 60.8276 7.69962 60.807L7.84749 59.3103C8.2869 59.3108 8.66243 59.1442 8.97408 58.8106C9.28677 58.4663 9.47248 57.997 9.53121 57.4025C9.58575 56.8506 9.50667 56.4033 9.29399 56.0607C9.08131 55.7182 8.7892 55.5285 8.41768 55.4918C8.03554 55.4541 7.73746 55.5961 7.52345 55.918C7.29882 56.2388 7.06114 56.7458 6.81043 57.4392C6.57661 58.07 6.35434 58.5839 6.1436 58.9811C5.92329 59.3667 5.62862 59.6913 5.25957 59.9549C4.88096 60.2069 4.41036 60.3051 3.84776 60.2496C3.40194 60.2055 3.00637 60.0324 2.66106 59.7304C2.31575 59.4283 2.06107 59.0226 1.89701 58.5134C1.72234 58.003 1.66594 57.4347 1.72782 56.8085C1.82325 55.8425 2.14448 55.0864 2.69149 54.5402C3.23851 53.994 3.93872 53.7416 4.79211 53.7831L4.64896 55.232C4.18937 55.2188 3.8048 55.3684 3.49525 55.6808C3.18675 55.9826 3.00471 56.4148 2.94913 56.9774C2.89774 57.4975 2.9683 57.9225 3.1608 58.2523C3.3533 58.5822 3.63001 58.765 3.99092 58.8006C4.27752 58.8289 4.52527 58.7623 4.73417 58.6007C4.9335 58.4275 5.10518 58.2086 5.24922 57.9442C5.38368 57.6681 5.54456 57.2874 5.73184 56.8021C5.96356 56.1926 6.18373 55.6998 6.39238 55.3239C6.5904 54.9469 6.86758 54.6366 7.22392 54.3931C7.5813 54.139 8.02589 54.0329 8.55768 54.0747C9.03536 54.1219 9.45216 54.2971 9.80808 54.6002C10.164 54.9033 10.4293 55.31 10.604 55.8204C10.7691 56.319 10.8207 56.8815 10.7588 57.5078ZM16.4516 36.8394C16.123 37.4499 15.6336 37.8527 14.9834 38.0478C14.3332 38.2429 13.7029 38.1762 13.0924 37.8475C12.4819 37.5189 12.0791 37.0294 11.884 36.3793C11.6889 35.7291 11.7556 35.0988 12.0843 34.4883C12.4003 33.9013 12.8771 33.5219 13.5146 33.3503C14.1648 33.1552 14.7951 33.222 15.4056 33.5506C16.0161 33.8793 16.4189 34.3687 16.614 35.0189C16.8218 35.6456 16.7676 36.2524 16.4516 36.8394Z" fill="black" fill-opacity="0.2"/>
</svg>
