<svg width="58" height="54" viewBox="0 0 58 54" fill="none" xmlns="http://www.w3.org/2000/svg">
<path d="M28.161 0.536464C28.2879 -0.178817 29.3141 -0.178817 29.441 0.536464L33.2927 22.248C33.3414 22.5226 33.5599 22.7355 33.8356 22.7771L57.0493 26.2861C57.7864 26.3976 57.7864 27.4601 57.0493 27.5715L33.8356 31.0805C33.5599 31.1222 33.3414 31.3351 33.2927 31.6097L29.441 53.3212C29.3141 54.0365 28.2879 54.0365 28.161 53.3212L24.3093 31.6097C24.2606 31.3351 24.0422 31.1222 23.7665 31.0805L0.552792 27.5715C-0.184341 27.4601 -0.184344 26.3976 0.552789 26.2861L23.7665 22.7771C24.0422 22.7355 24.2606 22.5226 24.3093 22.248L28.161 0.536464Z" fill="white"/>
</svg>
