<svg width="32" height="32" viewBox="0 0 32 32" fill="none" xmlns="http://www.w3.org/2000/svg">
<mask id="mask0_2039_689" style="mask-type:alpha" maskUnits="userSpaceOnUse" x="0" y="0" width="32" height="32">
<rect width="32" height="32" fill="#D9D9D9"/>
</mask>
<g mask="url(#mask0_2039_689)">
<path d="M14.666 22.6668H17.3327V21.3335H18.666C19.0438 21.3335 19.3605 21.2057 19.616 20.9502C19.8716 20.6946 19.9993 20.3779 19.9993 20.0002V16.0002C19.9993 15.6224 19.8716 15.3057 19.616 15.0502C19.3605 14.7946 19.0438 14.6668 18.666 14.6668H14.666V13.3335H19.9993V10.6668H17.3327V9.3335H14.666V10.6668H13.3327C12.9549 10.6668 12.6382 10.7946 12.3827 11.0502C12.1271 11.3057 11.9993 11.6224 11.9993 12.0002V16.0002C11.9993 16.3779 12.1271 16.6946 12.3827 16.9502C12.6382 17.2057 12.9549 17.3335 13.3327 17.3335H17.3327V18.6668H11.9993V21.3335H14.666V22.6668ZM5.33268 26.6668C4.59935 26.6668 3.97157 26.4057 3.44935 25.8835C2.92713 25.3613 2.66602 24.7335 2.66602 24.0002V8.00016C2.66602 7.26683 2.92713 6.63905 3.44935 6.11683C3.97157 5.59461 4.59935 5.3335 5.33268 5.3335H26.666C27.3993 5.3335 28.0271 5.59461 28.5493 6.11683C29.0716 6.63905 29.3327 7.26683 29.3327 8.00016V24.0002C29.3327 24.7335 29.0716 25.3613 28.5493 25.8835C28.0271 26.4057 27.3993 26.6668 26.666 26.6668H5.33268ZM5.33268 24.0002H26.666V8.00016H5.33268V24.0002Z" fill="white"/>
</g>
</svg>
