<svg width="32" height="32" viewBox="0 0 32 32" fill="none" xmlns="http://www.w3.org/2000/svg">
<mask id="mask0_2039_710" style="mask-type:alpha" maskUnits="userSpaceOnUse" x="0" y="0" width="32" height="32">
<rect width="32" height="32" fill="#D9D9D9"/>
</mask>
<g mask="url(#mask0_2039_710)">
<path d="M5.33398 26.6668C5.33398 25.0002 5.78954 23.5057 6.70065 22.1835C7.61176 20.8613 8.78954 19.9002 10.234 19.3002L9.90065 16.0002H5.33398V8.00016H1.33398V5.3335H12.0007V8.00016H8.00065V13.3335H9.60065L9.33398 10.6668H22.6673L22.4007 13.3335H24.0007V8.00016H20.0007V5.3335H30.7007V8.00016H26.7007V16.0002H22.134L21.8007 19.3002C23.2451 19.9002 24.4173 20.8613 25.3173 22.1835C26.2173 23.5057 26.6673 25.0002 26.6673 26.6668H24.0007C24.0007 25.2002 23.4784 23.9446 22.434 22.9002C21.3895 21.8557 20.134 21.3335 18.6673 21.3335H13.334C11.8673 21.3335 10.6118 21.8557 9.56732 22.9002C8.52287 23.9446 8.00065 25.2002 8.00065 26.6668H5.33398ZM12.834 18.6668H19.134L19.7007 13.3335H12.2673L12.834 18.6668Z" fill="white"/>
</g>
</svg>
