<svg width="32" height="32" viewBox="0 0 32 32" fill="none" xmlns="http://www.w3.org/2000/svg">
<mask id="mask0_2039_696" style="mask-type:alpha" maskUnits="userSpaceOnUse" x="0" y="0" width="32" height="32">
<rect width="32" height="32" fill="#D9D9D9"/>
</mask>
<g mask="url(#mask0_2039_696)">
<path d="M15.9993 29.3332C14.1549 29.3332 12.4216 28.9832 10.7993 28.2832C9.17713 27.5832 7.76602 26.6332 6.56602 25.4332C5.36602 24.2332 4.41602 22.8221 3.71602 21.1998C3.01602 19.5776 2.66602 17.8443 2.66602 15.9998C2.66602 14.1554 3.01602 12.4221 3.71602 10.7998C4.41602 9.17761 5.36602 7.7665 6.56602 6.5665C7.76602 5.3665 9.17713 4.4165 10.7993 3.7165C12.4216 3.0165 14.1549 2.6665 15.9993 2.6665C19.3771 2.6665 22.3049 3.75539 24.7827 5.93317C27.2605 8.11095 28.7327 10.8221 29.1993 14.0665C28.7549 13.8443 28.2938 13.6721 27.816 13.5498C27.3382 13.4276 26.8438 13.3554 26.3327 13.3332C25.9105 11.7109 25.1493 10.2665 24.0494 8.99984C22.9494 7.73317 21.5993 6.77762 19.9993 6.13317V6.6665C19.9993 7.39984 19.7382 8.02761 19.216 8.54984C18.6938 9.07206 18.066 9.33317 17.3327 9.33317H14.666V11.9998C14.666 12.3776 14.5382 12.6943 14.2827 12.9498C14.0271 13.2054 13.7105 13.3332 13.3327 13.3332H10.666V15.9998H18.666C18.9105 15.9998 19.1382 16.0609 19.3493 16.1832C19.5605 16.3054 19.7216 16.4776 19.8327 16.6998C19.4549 17.2998 19.166 17.9332 18.966 18.5998C18.766 19.2665 18.666 19.9554 18.666 20.6665C18.666 22.0665 19.0271 23.3665 19.7493 24.5665C20.4716 25.7665 21.2105 26.8887 21.966 27.9332C21.0549 28.3776 20.0993 28.7221 19.0993 28.9665C18.0993 29.2109 17.066 29.3332 15.9993 29.3332ZM14.666 26.5998V23.9998C13.9327 23.9998 13.3049 23.7387 12.7827 23.2165C12.2605 22.6943 11.9993 22.0665 11.9993 21.3332V19.9998L5.59935 13.5998C5.53268 13.9998 5.47157 14.3998 5.41602 14.7998C5.36046 15.1998 5.33268 15.5998 5.33268 15.9998C5.33268 18.6887 6.21602 21.0443 7.98268 23.0665C9.74935 25.0887 11.9771 26.2665 14.666 26.5998ZM25.9993 29.3332C25.8438 29.3332 25.7105 29.2887 25.5993 29.1998C25.4882 29.1109 25.4105 28.9998 25.366 28.8665C25.1216 28.0887 24.7771 27.3665 24.3327 26.6998C23.8882 26.0332 23.4105 25.3776 22.8993 24.7332C22.4327 24.1554 22.0549 23.5221 21.766 22.8332C21.4771 22.1443 21.3327 21.4221 21.3327 20.6665C21.3327 19.3776 21.7882 18.2776 22.6994 17.3665C23.6105 16.4554 24.7105 15.9998 25.9993 15.9998C27.2882 15.9998 28.3882 16.4554 29.2994 17.3665C30.2105 18.2776 30.666 19.3776 30.666 20.6665C30.666 21.4221 30.516 22.1387 30.216 22.8165C29.916 23.4943 29.5438 24.1332 29.0993 24.7332C28.5882 25.3776 28.1105 26.0332 27.666 26.6998C27.2216 27.3665 26.8771 28.0887 26.6327 28.8665C26.5882 28.9998 26.5105 29.1109 26.3994 29.1998C26.2882 29.2887 26.1549 29.3332 25.9993 29.3332ZM25.9993 25.5665C26.2216 25.1887 26.466 24.8387 26.7327 24.5165C26.9994 24.1943 27.2549 23.8665 27.4993 23.5332C27.8105 23.1109 28.0827 22.6609 28.316 22.1832C28.5494 21.7054 28.666 21.1998 28.666 20.6665C28.666 19.9332 28.4049 19.3054 27.8827 18.7832C27.3605 18.2609 26.7327 17.9998 25.9993 17.9998C25.266 17.9998 24.6382 18.2609 24.116 18.7832C23.5938 19.3054 23.3327 19.9332 23.3327 20.6665C23.3327 21.1998 23.4493 21.7054 23.6827 22.1832C23.916 22.6609 24.1882 23.1109 24.4993 23.5332C24.766 23.8665 25.0271 24.1943 25.2827 24.5165C25.5382 24.8387 25.7771 25.1887 25.9993 25.5665ZM25.9993 22.3332C25.5327 22.3332 25.1382 22.1721 24.816 21.8498C24.4938 21.5276 24.3327 21.1332 24.3327 20.6665C24.3327 20.1998 24.4938 19.8054 24.816 19.4832C25.1382 19.1609 25.5327 18.9998 25.9993 18.9998C26.466 18.9998 26.8605 19.1609 27.1827 19.4832C27.5049 19.8054 27.666 20.1998 27.666 20.6665C27.666 21.1332 27.5049 21.5276 27.1827 21.8498C26.8605 22.1721 26.466 22.3332 25.9993 22.3332Z" fill="white"/>
</g>
</svg>
