<svg width="378" height="378" viewBox="0 0 378 378" fill="none" xmlns="http://www.w3.org/2000/svg">
<circle cx="189" cy="189" r="159" stroke="url(#paint0_linear_2086_785)" stroke-width="60"/>
<path d="M142.743 212L139.863 206.996H138.297V212H136.245V199.49H140.565C141.525 199.49 142.335 199.658 142.995 199.994C143.667 200.33 144.165 200.78 144.489 201.344C144.825 201.908 144.993 202.538 144.993 203.234C144.993 204.05 144.753 204.794 144.273 205.466C143.805 206.126 143.079 206.576 142.095 206.816L145.191 212H142.743ZM138.297 205.358H140.565C141.333 205.358 141.909 205.166 142.293 204.782C142.689 204.398 142.887 203.882 142.887 203.234C142.887 202.586 142.695 202.082 142.311 201.722C141.927 201.35 141.345 201.164 140.565 201.164H138.297V205.358ZM156.708 206.798C156.708 207.17 156.684 207.506 156.636 207.806H149.058C149.118 208.598 149.412 209.234 149.94 209.714C150.468 210.194 151.116 210.434 151.884 210.434C152.988 210.434 153.768 209.972 154.224 209.048H156.438C156.138 209.96 155.592 210.71 154.8 211.298C154.02 211.874 153.048 212.162 151.884 212.162C150.936 212.162 150.084 211.952 149.328 211.532C148.584 211.1 147.996 210.5 147.564 209.732C147.144 208.952 146.934 208.052 146.934 207.032C146.934 206.012 147.138 205.118 147.546 204.35C147.966 203.57 148.548 202.97 149.292 202.55C150.048 202.13 150.912 201.92 151.884 201.92C152.82 201.92 153.654 202.124 154.386 202.532C155.118 202.94 155.688 203.516 156.096 204.26C156.504 204.992 156.708 205.838 156.708 206.798ZM154.566 206.15C154.554 205.394 154.284 204.788 153.756 204.332C153.228 203.876 152.574 203.648 151.794 203.648C151.086 203.648 150.48 203.876 149.976 204.332C149.472 204.776 149.172 205.382 149.076 206.15H154.566ZM158.043 206.996C158.043 206 158.247 205.118 158.655 204.35C159.075 203.582 159.639 202.988 160.347 202.568C161.067 202.136 161.865 201.92 162.741 201.92C163.389 201.92 164.025 202.064 164.649 202.352C165.285 202.628 165.789 203 166.161 203.468V198.68H168.231V212H166.161V210.506C165.825 210.986 165.357 211.382 164.757 211.694C164.169 212.006 163.491 212.162 162.723 212.162C161.859 212.162 161.067 211.946 160.347 211.514C159.639 211.07 159.075 210.458 158.655 209.678C158.247 208.886 158.043 207.992 158.043 206.996ZM166.161 207.032C166.161 206.348 166.017 205.754 165.729 205.25C165.453 204.746 165.087 204.362 164.631 204.098C164.175 203.834 163.683 203.702 163.155 203.702C162.627 203.702 162.135 203.834 161.679 204.098C161.223 204.35 160.851 204.728 160.563 205.232C160.287 205.724 160.149 206.312 160.149 206.996C160.149 207.68 160.287 208.28 160.563 208.796C160.851 209.312 161.223 209.708 161.679 209.984C162.147 210.248 162.639 210.38 163.155 210.38C163.683 210.38 164.175 210.248 164.631 209.984C165.087 209.72 165.453 209.336 165.729 208.832C166.017 208.316 166.161 207.716 166.161 207.032ZM179.908 202.082V212H177.856V210.83C177.532 211.238 177.106 211.562 176.578 211.802C176.062 212.03 175.51 212.144 174.922 212.144C174.142 212.144 173.44 211.982 172.816 211.658C172.204 211.334 171.718 210.854 171.358 210.218C171.01 209.582 170.836 208.814 170.836 207.914V202.082H172.87V207.608C172.87 208.496 173.092 209.18 173.536 209.66C173.98 210.128 174.586 210.362 175.354 210.362C176.122 210.362 176.728 210.128 177.172 209.66C177.628 209.18 177.856 208.496 177.856 207.608V202.082H179.908ZM181.932 207.032C181.932 206.012 182.136 205.118 182.544 204.35C182.964 203.57 183.54 202.97 184.272 202.55C185.004 202.13 185.844 201.92 186.792 201.92C187.992 201.92 188.982 202.208 189.762 202.784C190.554 203.348 191.088 204.158 191.364 205.214H189.15C188.97 204.722 188.682 204.338 188.286 204.062C187.89 203.786 187.392 203.648 186.792 203.648C185.952 203.648 185.28 203.948 184.776 204.548C184.284 205.136 184.038 205.964 184.038 207.032C184.038 208.1 184.284 208.934 184.776 209.534C185.28 210.134 185.952 210.434 186.792 210.434C187.98 210.434 188.766 209.912 189.15 208.868H191.364C191.076 209.876 190.536 210.68 189.744 211.28C188.952 211.868 187.968 212.162 186.792 212.162C185.844 212.162 185.004 211.952 184.272 211.532C183.54 211.1 182.964 210.5 182.544 209.732C182.136 208.952 181.932 208.052 181.932 207.032ZM195.803 203.756V209.246C195.803 209.618 195.887 209.888 196.055 210.056C196.235 210.212 196.535 210.29 196.955 210.29H198.215V212H196.595C195.671 212 194.963 211.784 194.471 211.352C193.979 210.92 193.733 210.218 193.733 209.246V203.756H192.563V202.082H193.733V199.616H195.803V202.082H198.215V203.756H195.803ZM201.15 200.768C200.778 200.768 200.466 200.642 200.214 200.39C199.962 200.138 199.836 199.826 199.836 199.454C199.836 199.082 199.962 198.77 200.214 198.518C200.466 198.266 200.778 198.14 201.15 198.14C201.51 198.14 201.816 198.266 202.068 198.518C202.32 198.77 202.446 199.082 202.446 199.454C202.446 199.826 202.32 200.138 202.068 200.39C201.816 200.642 201.51 200.768 201.15 200.768ZM202.158 202.082V212H200.106V202.082H202.158ZM209.154 212.162C208.218 212.162 207.372 211.952 206.616 211.532C205.86 211.1 205.266 210.5 204.834 209.732C204.402 208.952 204.186 208.052 204.186 207.032C204.186 206.024 204.408 205.13 204.852 204.35C205.296 203.57 205.902 202.97 206.67 202.55C207.438 202.13 208.296 201.92 209.244 201.92C210.192 201.92 211.05 202.13 211.818 202.55C212.586 202.97 213.192 203.57 213.636 204.35C214.08 205.13 214.302 206.024 214.302 207.032C214.302 208.04 214.074 208.934 213.618 209.714C213.162 210.494 212.538 211.1 211.746 211.532C210.966 211.952 210.102 212.162 209.154 212.162ZM209.154 210.38C209.682 210.38 210.174 210.254 210.63 210.002C211.098 209.75 211.476 209.372 211.764 208.868C212.052 208.364 212.196 207.752 212.196 207.032C212.196 206.312 212.058 205.706 211.782 205.214C211.506 204.71 211.14 204.332 210.684 204.08C210.228 203.828 209.736 203.702 209.208 203.702C208.68 203.702 208.188 203.828 207.732 204.08C207.288 204.332 206.934 204.71 206.67 205.214C206.406 205.706 206.274 206.312 206.274 207.032C206.274 208.1 206.544 208.928 207.084 209.516C207.636 210.092 208.326 210.38 209.154 210.38ZM221.334 201.92C222.114 201.92 222.81 202.082 223.422 202.406C224.046 202.73 224.532 203.21 224.88 203.846C225.228 204.482 225.402 205.25 225.402 206.15V212H223.368V206.456C223.368 205.568 223.146 204.89 222.702 204.422C222.258 203.942 221.652 203.702 220.884 203.702C220.116 203.702 219.504 203.942 219.048 204.422C218.604 204.89 218.382 205.568 218.382 206.456V212H216.33V202.082H218.382V203.216C218.718 202.808 219.144 202.49 219.66 202.262C220.188 202.034 220.746 201.92 221.334 201.92ZM233.74 200.768C233.368 200.768 233.056 200.642 232.804 200.39C232.552 200.138 232.426 199.826 232.426 199.454C232.426 199.082 232.552 198.77 232.804 198.518C233.056 198.266 233.368 198.14 233.74 198.14C234.1 198.14 234.406 198.266 234.658 198.518C234.91 198.77 235.036 199.082 235.036 199.454C235.036 199.826 234.91 200.138 234.658 200.39C234.406 200.642 234.1 200.768 233.74 200.768ZM234.748 202.082V212H232.696V202.082H234.748ZM242.446 201.92C243.226 201.92 243.922 202.082 244.534 202.406C245.158 202.73 245.644 203.21 245.992 203.846C246.34 204.482 246.514 205.25 246.514 206.15V212H244.48V206.456C244.48 205.568 244.258 204.89 243.814 204.422C243.37 203.942 242.764 203.702 241.996 203.702C241.228 203.702 240.616 203.942 240.16 204.422C239.716 204.89 239.494 205.568 239.494 206.456V212H237.442V202.082H239.494V203.216C239.83 202.808 240.256 202.49 240.772 202.262C241.3 202.034 241.858 201.92 242.446 201.92ZM130.341 227.216C130.341 227.852 130.191 228.452 129.891 229.016C129.591 229.58 129.111 230.042 128.451 230.402C127.791 230.75 126.945 230.924 125.913 230.924H123.645V236H121.593V223.49H125.913C126.873 223.49 127.683 223.658 128.343 223.994C129.015 224.318 129.513 224.762 129.837 225.326C130.173 225.89 130.341 226.52 130.341 227.216ZM125.913 229.25C126.693 229.25 127.275 229.076 127.659 228.728C128.043 228.368 128.235 227.864 128.235 227.216C128.235 225.848 127.461 225.164 125.913 225.164H123.645V229.25H125.913ZM131.614 230.996C131.614 230 131.818 229.118 132.226 228.35C132.646 227.582 133.21 226.988 133.918 226.568C134.638 226.136 135.43 225.92 136.294 225.92C137.074 225.92 137.752 226.076 138.328 226.388C138.916 226.688 139.384 227.066 139.732 227.522V226.082H141.802V236H139.732V234.524C139.384 234.992 138.91 235.382 138.31 235.694C137.71 236.006 137.026 236.162 136.258 236.162C135.406 236.162 134.626 235.946 133.918 235.514C133.21 235.07 132.646 234.458 132.226 233.678C131.818 232.886 131.614 231.992 131.614 230.996ZM139.732 231.032C139.732 230.348 139.588 229.754 139.3 229.25C139.024 228.746 138.658 228.362 138.202 228.098C137.746 227.834 137.254 227.702 136.726 227.702C136.198 227.702 135.706 227.834 135.25 228.098C134.794 228.35 134.422 228.728 134.134 229.232C133.858 229.724 133.72 230.312 133.72 230.996C133.72 231.68 133.858 232.28 134.134 232.796C134.422 233.312 134.794 233.708 135.25 233.984C135.718 234.248 136.21 234.38 136.726 234.38C137.254 234.38 137.746 234.248 138.202 233.984C138.658 233.72 139.024 233.336 139.3 232.832C139.588 232.316 139.732 231.716 139.732 231.032ZM153.425 226.082L147.341 240.662H145.217L147.233 235.838L143.327 226.082H145.613L148.403 233.642L151.301 226.082H153.425ZM166.98 225.92C167.76 225.92 168.456 226.082 169.068 226.406C169.692 226.73 170.178 227.21 170.526 227.846C170.886 228.482 171.066 229.25 171.066 230.15V236H169.032V230.456C169.032 229.568 168.81 228.89 168.366 228.422C167.922 227.942 167.316 227.702 166.548 227.702C165.78 227.702 165.168 227.942 164.712 228.422C164.268 228.89 164.046 229.568 164.046 230.456V236H162.012V230.456C162.012 229.568 161.79 228.89 161.346 228.422C160.902 227.942 160.296 227.702 159.528 227.702C158.76 227.702 158.148 227.942 157.692 228.422C157.248 228.89 157.026 229.568 157.026 230.456V236H154.974V226.082H157.026V227.216C157.362 226.808 157.788 226.49 158.304 226.262C158.82 226.034 159.372 225.92 159.96 225.92C160.752 225.92 161.46 226.088 162.084 226.424C162.708 226.76 163.188 227.246 163.524 227.882C163.824 227.282 164.292 226.808 164.928 226.46C165.564 226.1 166.248 225.92 166.98 225.92ZM182.767 230.798C182.767 231.17 182.743 231.506 182.695 231.806H175.117C175.177 232.598 175.471 233.234 175.999 233.714C176.527 234.194 177.175 234.434 177.943 234.434C179.047 234.434 179.827 233.972 180.283 233.048H182.497C182.197 233.96 181.651 234.71 180.859 235.298C180.079 235.874 179.107 236.162 177.943 236.162C176.995 236.162 176.143 235.952 175.387 235.532C174.643 235.1 174.055 234.5 173.623 233.732C173.203 232.952 172.993 232.052 172.993 231.032C172.993 230.012 173.197 229.118 173.605 228.35C174.025 227.57 174.607 226.97 175.351 226.55C176.107 226.13 176.971 225.92 177.943 225.92C178.879 225.92 179.713 226.124 180.445 226.532C181.177 226.94 181.747 227.516 182.155 228.26C182.563 228.992 182.767 229.838 182.767 230.798ZM180.625 230.15C180.613 229.394 180.343 228.788 179.815 228.332C179.287 227.876 178.633 227.648 177.853 227.648C177.145 227.648 176.539 227.876 176.035 228.332C175.531 228.776 175.231 229.382 175.135 230.15H180.625ZM189.791 225.92C190.571 225.92 191.267 226.082 191.879 226.406C192.503 226.73 192.989 227.21 193.337 227.846C193.685 228.482 193.859 229.25 193.859 230.15V236H191.825V230.456C191.825 229.568 191.603 228.89 191.159 228.422C190.715 227.942 190.109 227.702 189.341 227.702C188.573 227.702 187.961 227.942 187.505 228.422C187.061 228.89 186.839 229.568 186.839 230.456V236H184.787V226.082H186.839V227.216C187.175 226.808 187.601 226.49 188.117 226.262C188.645 226.034 189.203 225.92 189.791 225.92ZM198.87 227.756V233.246C198.87 233.618 198.954 233.888 199.122 234.056C199.302 234.212 199.602 234.29 200.022 234.29H201.282V236H199.662C198.738 236 198.03 235.784 197.538 235.352C197.046 234.92 196.8 234.218 196.8 233.246V227.756H195.63V226.082H196.8V223.616H198.87V226.082H201.282V227.756H198.87ZM209.901 225.146V228.818H214.221V230.492H209.901V234.326H214.761V236H207.849V223.472H214.761V225.146H209.901ZM219.34 227.522C219.64 227.018 220.036 226.628 220.528 226.352C221.032 226.064 221.626 225.92 222.31 225.92V228.044H221.788C220.984 228.044 220.372 228.248 219.952 228.656C219.544 229.064 219.34 229.772 219.34 230.78V236H217.288V226.082H219.34V227.522ZM226.249 227.522C226.549 227.018 226.945 226.628 227.437 226.352C227.941 226.064 228.535 225.92 229.219 225.92V228.044H228.697C227.893 228.044 227.281 228.248 226.861 228.656C226.453 229.064 226.249 229.772 226.249 230.78V236H224.197V226.082H226.249V227.522ZM235.407 236.162C234.471 236.162 233.625 235.952 232.869 235.532C232.113 235.1 231.519 234.5 231.087 233.732C230.655 232.952 230.439 232.052 230.439 231.032C230.439 230.024 230.661 229.13 231.105 228.35C231.549 227.57 232.155 226.97 232.923 226.55C233.691 226.13 234.549 225.92 235.497 225.92C236.445 225.92 237.303 226.13 238.071 226.55C238.839 226.97 239.445 227.57 239.889 228.35C240.333 229.13 240.555 230.024 240.555 231.032C240.555 232.04 240.327 232.934 239.871 233.714C239.415 234.494 238.791 235.1 237.999 235.532C237.219 235.952 236.355 236.162 235.407 236.162ZM235.407 234.38C235.935 234.38 236.427 234.254 236.883 234.002C237.351 233.75 237.729 233.372 238.017 232.868C238.305 232.364 238.449 231.752 238.449 231.032C238.449 230.312 238.311 229.706 238.035 229.214C237.759 228.71 237.393 228.332 236.937 228.08C236.481 227.828 235.989 227.702 235.461 227.702C234.933 227.702 234.441 227.828 233.985 228.08C233.541 228.332 233.187 228.71 232.923 229.214C232.659 229.706 232.527 230.312 232.527 231.032C232.527 232.1 232.797 232.928 233.337 233.516C233.889 234.092 234.579 234.38 235.407 234.38ZM244.635 227.522C244.935 227.018 245.331 226.628 245.823 226.352C246.327 226.064 246.921 225.92 247.605 225.92V228.044H247.083C246.279 228.044 245.667 228.248 245.247 228.656C244.839 229.064 244.635 229.772 244.635 230.78V236H242.583V226.082H244.635V227.522ZM253.092 236.162C252.312 236.162 251.61 236.024 250.986 235.748C250.374 235.46 249.888 235.076 249.528 234.596C249.168 234.104 248.976 233.558 248.952 232.958H251.076C251.112 233.378 251.31 233.732 251.67 234.02C252.042 234.296 252.504 234.434 253.056 234.434C253.632 234.434 254.076 234.326 254.388 234.11C254.712 233.882 254.874 233.594 254.874 233.246C254.874 232.874 254.694 232.598 254.334 232.418C253.986 232.238 253.428 232.04 252.66 231.824C251.916 231.62 251.31 231.422 250.842 231.23C250.374 231.038 249.966 230.744 249.618 230.348C249.282 229.952 249.114 229.43 249.114 228.782C249.114 228.254 249.27 227.774 249.582 227.342C249.894 226.898 250.338 226.55 250.914 226.298C251.502 226.046 252.174 225.92 252.93 225.92C254.058 225.92 254.964 226.208 255.648 226.784C256.344 227.348 256.716 228.122 256.764 229.106H254.712C254.676 228.662 254.496 228.308 254.172 228.044C253.848 227.78 253.41 227.648 252.858 227.648C252.318 227.648 251.904 227.75 251.616 227.954C251.328 228.158 251.184 228.428 251.184 228.764C251.184 229.028 251.28 229.25 251.472 229.43C251.664 229.61 251.898 229.754 252.174 229.862C252.45 229.958 252.858 230.084 253.398 230.24C254.118 230.432 254.706 230.63 255.162 230.834C255.63 231.026 256.032 231.314 256.368 231.698C256.704 232.082 256.878 232.592 256.89 233.228C256.89 233.792 256.734 234.296 256.422 234.74C256.11 235.184 255.666 235.532 255.09 235.784C254.526 236.036 253.86 236.162 253.092 236.162Z" fill="#191919"/>
<path d="M142.04 168.52C142.339 170.163 143.011 171.432 144.056 172.328C145.139 173.187 146.576 173.616 148.368 173.616C150.683 173.616 152.363 172.664 153.408 170.76C154.453 168.819 154.976 165.571 154.976 161.016C154.117 162.211 152.904 163.144 151.336 163.816C149.805 164.488 148.144 164.824 146.352 164.824C143.963 164.824 141.797 164.339 139.856 163.368C137.952 162.36 136.44 160.885 135.32 158.944C134.2 156.965 133.64 154.576 133.64 151.776C133.64 147.632 134.872 144.347 137.336 141.92C139.8 139.456 143.16 138.224 147.416 138.224C152.717 138.224 156.451 139.923 158.616 143.32C160.819 146.717 161.92 151.832 161.92 158.664C161.92 163.517 161.491 167.493 160.632 170.592C159.811 173.691 158.373 176.043 156.32 177.648C154.304 179.253 151.541 180.056 148.032 180.056C145.269 180.056 142.917 179.533 140.976 178.488C139.035 177.405 137.541 176.005 136.496 174.288C135.488 172.533 134.909 170.611 134.76 168.52H142.04ZM147.976 158.44C149.917 158.44 151.448 157.843 152.568 156.648C153.688 155.453 154.248 153.848 154.248 151.832C154.248 149.629 153.651 147.931 152.456 146.736C151.299 145.504 149.712 144.888 147.696 144.888C145.68 144.888 144.075 145.523 142.88 146.792C141.723 148.024 141.144 149.667 141.144 151.72C141.144 153.699 141.704 155.323 142.824 156.592C143.981 157.824 145.699 158.44 147.976 158.44ZM195.463 145.952H177.319V155.528C178.103 154.557 179.223 153.773 180.679 153.176C182.135 152.541 183.684 152.224 185.327 152.224C188.313 152.224 190.759 152.877 192.663 154.184C194.567 155.491 195.948 157.171 196.807 159.224C197.665 161.24 198.095 163.405 198.095 165.72C198.095 170.013 196.863 173.467 194.399 176.08C191.972 178.693 188.5 180 183.983 180C179.727 180 176.329 178.936 173.791 176.808C171.252 174.68 169.815 171.899 169.479 168.464H177.095C177.431 169.957 178.177 171.152 179.335 172.048C180.529 172.944 182.041 173.392 183.871 173.392C186.073 173.392 187.735 172.701 188.855 171.32C189.975 169.939 190.535 168.109 190.535 165.832C190.535 163.517 189.956 161.763 188.799 160.568C187.679 159.336 186.017 158.72 183.815 158.72C182.247 158.72 180.94 159.112 179.895 159.896C178.849 160.68 178.103 161.725 177.655 163.032H170.151V139.064H195.463V145.952ZM203.166 149.2C203.166 146.363 203.987 144.141 205.63 142.536C207.31 140.931 209.456 140.128 212.07 140.128C214.683 140.128 216.811 140.931 218.454 142.536C220.134 144.141 220.974 146.363 220.974 149.2C220.974 152.075 220.134 154.315 218.454 155.92C216.811 157.525 214.683 158.328 212.07 158.328C209.456 158.328 207.31 157.525 205.63 155.92C203.987 154.315 203.166 152.075 203.166 149.2ZM239.118 140.8L217.11 180H209.494L231.446 140.8H239.118ZM212.014 144.832C209.96 144.832 208.934 146.288 208.934 149.2C208.934 152.149 209.96 153.624 212.014 153.624C213.022 153.624 213.806 153.269 214.366 152.56C214.926 151.813 215.206 150.693 215.206 149.2C215.206 146.288 214.142 144.832 212.014 144.832ZM227.75 171.544C227.75 168.669 228.571 166.448 230.214 164.88C231.894 163.275 234.04 162.472 236.654 162.472C239.267 162.472 241.376 163.275 242.982 164.88C244.624 166.448 245.446 168.669 245.446 171.544C245.446 174.419 244.624 176.659 242.982 178.264C241.376 179.869 239.267 180.672 236.654 180.672C234.003 180.672 231.856 179.869 230.214 178.264C228.571 176.659 227.75 174.419 227.75 171.544ZM236.598 167.176C234.47 167.176 233.406 168.632 233.406 171.544C233.406 174.493 234.47 175.968 236.598 175.968C238.688 175.968 239.734 174.493 239.734 171.544C239.734 168.632 238.688 167.176 236.598 167.176Z" fill="#191919"/>
<defs>
<linearGradient id="paint0_linear_2086_785" x1="325.5" y1="322" x2="32" y2="80" gradientUnits="userSpaceOnUse">
<stop stop-color="#557CFF"/>
<stop offset="1" stop-color="#693399"/>
</linearGradient>
</defs>
</svg>
