<svg width="268" height="57" viewBox="0 0 268 57" fill="none" xmlns="http://www.w3.org/2000/svg">
<path d="M0.000469208 44.5781V3.29812H13.5005C16.9805 3.29812 19.8205 3.47812 22.0205 3.83812C24.2605 4.15812 26.0205 4.75812 27.3005 5.63812C28.5805 6.51812 29.5005 7.73812 30.0605 9.29813C30.6605 10.8581 31.0405 12.8381 31.2005 15.2381C31.3605 17.6381 31.4405 20.5381 31.4405 23.9381C31.4405 27.3381 31.3605 30.2381 31.2005 32.6381C31.0405 35.0381 30.6605 37.0181 30.0605 38.5781C29.5005 40.1381 28.5805 41.3581 27.3005 42.2381C26.0205 43.1181 24.2605 43.7381 22.0205 44.0981C19.8205 44.4181 16.9805 44.5781 13.5005 44.5781H0.000469208ZM6.78047 38.8181H12.9005C15.1405 38.8181 16.9805 38.7781 18.4205 38.6981C19.9005 38.5781 21.0605 38.2981 21.9005 37.8581C22.7405 37.3781 23.3605 36.6181 23.7605 35.5781C24.1605 34.5381 24.4005 33.0781 24.4805 31.1981C24.6005 29.2781 24.6605 26.8581 24.6605 23.9381C24.6605 21.0181 24.6005 18.6181 24.4805 16.7381C24.4005 14.8581 24.1405 13.3981 23.7005 12.3581C23.3005 11.2781 22.6605 10.5181 21.7805 10.0781C20.9405 9.59812 19.8005 9.31812 18.3605 9.23812C16.9205 9.11812 15.1005 9.05812 12.9005 9.05812H6.78047V38.8181ZM40.3533 44.5781V-0.00187683H46.7133V17.7581H47.1333C47.6133 16.8381 48.2533 16.0781 49.0533 15.4781C49.8533 14.8381 50.8533 14.3581 52.0533 14.0381C53.2933 13.7181 54.7933 13.5581 56.5533 13.5581C58.7133 13.5581 60.4533 13.7981 61.7733 14.2781C63.1333 14.7581 64.1533 15.4981 64.8333 16.4981C65.5133 17.4981 65.9733 18.7381 66.2133 20.2181C66.4933 21.6981 66.6333 23.4381 66.6333 25.4381V44.5781H60.2133V27.9581C60.2133 25.9581 60.1333 24.3781 59.9733 23.2181C59.8533 22.0181 59.5733 21.1381 59.1333 20.5781C58.6933 19.9781 58.0333 19.5981 57.1533 19.4381C56.3133 19.2781 55.1733 19.1981 53.7333 19.1981C52.1333 19.1981 50.8533 19.3981 49.8933 19.7981C48.9733 20.1981 48.2733 20.7981 47.7933 21.5981C47.3533 22.3981 47.0533 23.3981 46.8933 24.5981C46.7733 25.7981 46.7133 27.1981 46.7133 28.7981V44.5781H40.3533ZM83.8955 45.0581C81.8155 45.0581 80.0555 44.7781 78.6155 44.2181C77.2155 43.6581 76.1555 42.7381 75.4355 41.4581C74.7155 40.1381 74.3555 38.3581 74.3555 36.1181C74.3555 33.7581 74.6355 31.8981 75.1955 30.5381C75.7555 29.1381 76.7155 28.1381 78.0755 27.5381C79.4355 26.9381 81.3555 26.6381 83.8355 26.6381C84.2355 26.6381 84.8155 26.6581 85.5755 26.6981C86.3755 26.6981 87.2755 26.7181 88.2755 26.7581C89.3155 26.7581 90.3355 26.7781 91.3355 26.8181C92.3755 26.8181 93.3155 26.8381 94.1555 26.8781V25.4381C94.1555 23.8781 94.0555 22.6581 93.8555 21.7781C93.6555 20.8981 93.2355 20.2581 92.5955 19.8581C91.9955 19.4181 91.1155 19.1381 89.9555 19.0181C88.7955 18.8981 87.2955 18.8381 85.4555 18.8381C84.5755 18.8381 83.5355 18.8781 82.3355 18.9581C81.1755 18.9981 80.0355 19.0581 78.9155 19.1381C77.7955 19.2181 76.9355 19.3181 76.3355 19.4381V14.3981C77.9755 14.0781 79.7755 13.8581 81.7355 13.7381C83.6955 13.5781 85.6555 13.4981 87.6155 13.4981C89.8955 13.4981 91.7955 13.6381 93.3155 13.9181C94.8755 14.1981 96.1355 14.6381 97.0955 15.2381C98.0555 15.8381 98.7755 16.6181 99.2555 17.5781C99.7355 18.5381 100.075 19.6981 100.275 21.0581C100.475 22.3781 100.575 23.8981 100.575 25.6181V44.5781H94.6955L94.4555 40.6181H94.0955C93.4155 41.8981 92.4955 42.8781 91.3355 43.5581C90.2155 44.1981 88.9955 44.5981 87.6755 44.7581C86.3555 44.9581 85.0955 45.0581 83.8955 45.0581ZM86.7155 39.8981C87.7155 39.8981 88.6155 39.8381 89.4155 39.7181C90.2555 39.5581 90.9755 39.3181 91.5755 38.9981C92.2155 38.6381 92.7155 38.1581 93.0755 37.5581C93.4355 36.8781 93.6955 36.0981 93.8555 35.2181C94.0555 34.3381 94.1555 33.2981 94.1555 32.0981V31.0181H85.3955C84.0755 31.0181 83.0555 31.1181 82.3355 31.3181C81.6555 31.5181 81.1955 31.9381 80.9555 32.5781C80.7155 33.2181 80.5955 34.1981 80.5955 35.5181C80.5955 36.7581 80.7355 37.6981 81.0155 38.3381C81.2955 38.9381 81.8755 39.3581 82.7555 39.5981C83.6755 39.7981 84.9955 39.8981 86.7155 39.8981ZM112.547 44.5781V19.3181H106.427V13.9781H112.547V5.09812H118.907V13.9781H126.047V19.3181H118.907V44.5781H112.547ZM142.248 45.0581C140.128 45.0581 138.388 44.8181 137.028 44.3381C135.708 43.8181 134.688 43.0581 133.968 42.0581C133.288 41.0581 132.828 39.8181 132.588 38.3381C132.348 36.8581 132.228 35.1181 132.228 33.1181V13.9781H138.588V30.5981C138.588 32.5981 138.648 34.1981 138.768 35.3981C138.928 36.5581 139.228 37.4381 139.668 38.0381C140.108 38.5981 140.748 38.9581 141.588 39.1181C142.468 39.2781 143.628 39.3581 145.068 39.3581C146.668 39.3581 147.948 39.1581 148.908 38.7581C149.868 38.3581 150.568 37.7581 151.008 36.9581C151.488 36.1581 151.788 35.1581 151.908 33.9581C152.028 32.7581 152.088 31.3581 152.088 29.7581V13.9781H158.508V44.5781H152.628L152.388 40.4981H151.968C151.528 41.4581 150.888 42.2781 150.048 42.9581C149.248 43.6381 148.208 44.1581 146.928 44.5181C145.648 44.8781 144.088 45.0581 142.248 45.0581Z" fill="#4B0081"/>
<path d="M168.75 44.5781V3.29812H187.23C189.83 3.29812 191.93 3.61812 193.53 4.25812C195.13 4.89812 196.35 5.81812 197.19 7.01812C198.07 8.17812 198.65 9.57812 198.93 11.2181C199.25 12.8581 199.41 14.6781 199.41 16.6781C199.41 18.5581 199.27 20.3181 198.99 21.9581C198.71 23.5581 198.13 24.9781 197.25 26.2181C196.41 27.4181 195.17 28.3581 193.53 29.0381C191.89 29.7181 189.73 30.0581 187.05 30.0581H175.53V44.5781H168.75ZM175.53 24.2981H184.47C186.35 24.2981 187.85 24.1781 188.97 23.9381C190.09 23.6981 190.89 23.2781 191.37 22.6781C191.89 22.0781 192.23 21.2981 192.39 20.3381C192.55 19.3781 192.63 18.1581 192.63 16.6781C192.63 15.1981 192.55 13.9781 192.39 13.0181C192.27 12.0181 191.95 11.2381 191.43 10.6781C190.95 10.0781 190.17 9.65812 189.09 9.41812C188.01 9.17812 186.53 9.05812 184.65 9.05812H175.53V24.2981ZM214.794 45.0581C212.714 45.0581 210.954 44.7781 209.514 44.2181C208.114 43.6581 207.054 42.7381 206.334 41.4581C205.614 40.1381 205.254 38.3581 205.254 36.1181C205.254 33.7581 205.534 31.8981 206.094 30.5381C206.654 29.1381 207.614 28.1381 208.974 27.5381C210.334 26.9381 212.254 26.6381 214.734 26.6381C215.134 26.6381 215.714 26.6581 216.474 26.6981C217.274 26.6981 218.174 26.7181 219.174 26.7581C220.214 26.7581 221.234 26.7781 222.234 26.8181C223.274 26.8181 224.214 26.8381 225.054 26.8781V25.4381C225.054 23.8781 224.954 22.6581 224.754 21.7781C224.554 20.8981 224.134 20.2581 223.494 19.8581C222.894 19.4181 222.014 19.1381 220.854 19.0181C219.694 18.8981 218.194 18.8381 216.354 18.8381C215.474 18.8381 214.434 18.8781 213.234 18.9581C212.074 18.9981 210.934 19.0581 209.814 19.1381C208.694 19.2181 207.834 19.3181 207.234 19.4381V14.3981C208.874 14.0781 210.674 13.8581 212.634 13.7381C214.594 13.5781 216.554 13.4981 218.514 13.4981C220.794 13.4981 222.694 13.6381 224.214 13.9181C225.774 14.1981 227.034 14.6381 227.994 15.2381C228.954 15.8381 229.674 16.6181 230.154 17.5781C230.634 18.5381 230.974 19.6981 231.174 21.0581C231.374 22.3781 231.474 23.8981 231.474 25.6181V44.5781H225.594L225.354 40.6181H224.994C224.314 41.8981 223.394 42.8781 222.234 43.5581C221.114 44.1981 219.894 44.5981 218.574 44.7581C217.254 44.9581 215.994 45.0581 214.794 45.0581ZM217.614 39.8981C218.614 39.8981 219.514 39.8381 220.314 39.7181C221.154 39.5581 221.874 39.3181 222.474 38.9981C223.114 38.6381 223.614 38.1581 223.974 37.5581C224.334 36.8781 224.594 36.0981 224.754 35.2181C224.954 34.3381 225.054 33.2981 225.054 32.0981V31.0181H216.294C214.974 31.0181 213.954 31.1181 213.234 31.3181C212.554 31.5181 212.094 31.9381 211.854 32.5781C211.614 33.2181 211.494 34.1981 211.494 35.5181C211.494 36.7581 211.634 37.6981 211.914 38.3381C212.194 38.9381 212.774 39.3581 213.654 39.5981C214.574 39.7981 215.894 39.8981 217.614 39.8981ZM253.098 56.9381C251.938 56.9381 250.718 56.8981 249.438 56.8181C248.198 56.7781 246.998 56.7181 245.838 56.6381C244.718 56.5581 243.718 56.4581 242.838 56.3381V51.3581C244.278 51.3981 245.518 51.4381 246.558 51.4781C247.638 51.5181 248.598 51.5381 249.438 51.5381C250.278 51.5781 251.018 51.5981 251.658 51.5981C253.818 51.5981 255.518 51.4581 256.758 51.1781C257.998 50.8981 258.918 50.4181 259.518 49.7381C260.118 49.0581 260.478 48.1181 260.598 46.9181C260.758 45.7581 260.838 44.2781 260.838 42.4781V40.6181H260.478C260.078 41.4981 259.478 42.2581 258.678 42.8981C257.918 43.4981 256.898 43.9781 255.618 44.3381C254.378 44.6581 252.838 44.8181 250.998 44.8181C248.878 44.8181 247.138 44.5781 245.778 44.0981C244.458 43.5781 243.438 42.8381 242.718 41.8781C242.038 40.8781 241.578 39.6381 241.338 38.1581C241.098 36.6781 240.978 34.9581 240.978 32.9981V13.9781H247.338V30.4781C247.338 32.4781 247.398 34.0781 247.518 35.2781C247.678 36.4381 247.978 37.2981 248.418 37.8581C248.858 38.4181 249.498 38.7981 250.338 38.9981C251.218 39.1581 252.378 39.2381 253.818 39.2381C255.418 39.2381 256.698 39.0381 257.658 38.6381C258.618 38.2381 259.318 37.6381 259.758 36.8381C260.238 36.0381 260.538 35.0381 260.658 33.8381C260.778 32.6381 260.838 31.2381 260.838 29.6381V13.9781H267.258V40.9781C267.258 43.8181 267.098 46.2381 266.778 48.2381C266.498 50.2781 265.878 51.9381 264.918 53.2181C263.998 54.4981 262.598 55.4381 260.718 56.0381C258.838 56.6381 256.298 56.9381 253.098 56.9381Z" fill="#6FB018"/>
</svg>
