<svg width="170" height="37" viewBox="0 0 170 37" fill="none" xmlns="http://www.w3.org/2000/svg">
<path d="M0 28.2344V2.09037H8.55C10.754 2.09037 12.5527 2.20437 13.946 2.43237C15.3647 2.63504 16.4793 3.01504 17.29 3.57237C18.1007 4.12971 18.6833 4.90237 19.038 5.89038C19.418 6.87837 19.6587 8.13237 19.76 9.65237C19.8613 11.1724 19.912 13.009 19.912 15.1624C19.912 17.3157 19.8613 19.1524 19.76 20.6724C19.6587 22.1924 19.418 23.4464 19.038 24.4344C18.6833 25.4224 18.1007 26.195 17.29 26.7524C16.4793 27.3097 15.3647 27.7024 13.946 27.9304C12.5527 28.133 10.754 28.2344 8.55 28.2344H0ZM4.294 24.5864H8.17C9.58867 24.5864 10.754 24.561 11.666 24.5104C12.6033 24.4344 13.338 24.257 13.87 23.9784C14.402 23.6744 14.7947 23.193 15.048 22.5344C15.3013 21.8757 15.4533 20.951 15.504 19.7604C15.58 18.5444 15.618 17.0117 15.618 15.1624C15.618 13.313 15.58 11.793 15.504 10.6024C15.4533 9.41171 15.2887 8.48704 15.01 7.82837C14.7567 7.14437 14.3513 6.66304 13.794 6.38437C13.262 6.08037 12.54 5.90304 11.628 5.85237C10.716 5.77637 9.56333 5.73837 8.17 5.73837H4.294V24.5864ZM25.5568 28.2344V0.00037384H29.5848V11.2484H29.8508C30.1548 10.6657 30.5601 10.1844 31.0668 9.80437C31.5734 9.39904 32.2068 9.09504 32.9668 8.89237C33.7521 8.68971 34.7021 8.58837 35.8168 8.58837C37.1848 8.58837 38.2868 8.74037 39.1228 9.04438C39.9841 9.34837 40.6301 9.81704 41.0608 10.4504C41.4914 11.0837 41.7828 11.869 41.9348 12.8064C42.1121 13.7437 42.2008 14.8457 42.2008 16.1124V28.2344H38.1348V17.7084C38.1348 16.4417 38.0841 15.441 37.9828 14.7064C37.9068 13.9464 37.7294 13.389 37.4508 13.0344C37.1721 12.6544 36.7541 12.4137 36.1968 12.3124C35.6648 12.211 34.9428 12.1604 34.0308 12.1604C33.0174 12.1604 32.2068 12.287 31.5988 12.5404C31.0161 12.7937 30.5728 13.1737 30.2688 13.6804C29.9901 14.187 29.8001 14.8204 29.6988 15.5804C29.6228 16.3404 29.5848 17.227 29.5848 18.2404V28.2344H25.5568ZM53.1335 28.5384C51.8162 28.5384 50.7015 28.361 49.7895 28.0064C48.9028 27.6517 48.2315 27.069 47.7755 26.2584C47.3195 25.4224 47.0915 24.295 47.0915 22.8764C47.0915 21.3817 47.2688 20.2037 47.6235 19.3424C47.9782 18.4557 48.5862 17.8224 49.4475 17.4424C50.3088 17.0624 51.5248 16.8724 53.0955 16.8724C53.3488 16.8724 53.7162 16.885 54.1975 16.9104C54.7042 16.9104 55.2742 16.923 55.9075 16.9484C56.5662 16.9484 57.2122 16.961 57.8455 16.9864C58.5042 16.9864 59.0995 16.999 59.6315 17.0244V16.1124C59.6315 15.1244 59.5682 14.3517 59.4415 13.7944C59.3148 13.237 59.0488 12.8317 58.6435 12.5784C58.2635 12.2997 57.7062 12.1224 56.9715 12.0464C56.2368 11.9704 55.2868 11.9324 54.1215 11.9324C53.5642 11.9324 52.9055 11.9577 52.1455 12.0084C51.4108 12.0337 50.6888 12.0717 49.9795 12.1224C49.2702 12.173 48.7255 12.2364 48.3455 12.3124V9.12037C49.3842 8.91771 50.5242 8.77837 51.7655 8.70238C53.0068 8.60104 54.2482 8.55037 55.4895 8.55037C56.9335 8.55037 58.1368 8.63904 59.0995 8.81637C60.0875 8.99371 60.8855 9.27237 61.4935 9.65237C62.1015 10.0324 62.5575 10.5264 62.8615 11.1344C63.1655 11.7424 63.3808 12.477 63.5075 13.3384C63.6342 14.1744 63.6975 15.137 63.6975 16.2264V28.2344H59.9735L59.8215 25.7264H59.5935C59.1628 26.537 58.5802 27.1577 57.8455 27.5884C57.1362 27.9937 56.3635 28.247 55.5275 28.3484C54.6915 28.475 53.8935 28.5384 53.1335 28.5384ZM54.9195 25.2704C55.5528 25.2704 56.1228 25.2324 56.6295 25.1564C57.1615 25.055 57.6175 24.903 57.9975 24.7004C58.4028 24.4724 58.7195 24.1684 58.9475 23.7884C59.1755 23.3577 59.3402 22.8637 59.4415 22.3064C59.5682 21.749 59.6315 21.0904 59.6315 20.3304V19.6464H54.0835C53.2475 19.6464 52.6015 19.7097 52.1455 19.8364C51.7148 19.963 51.4235 20.229 51.2715 20.6344C51.1195 21.0397 51.0435 21.6604 51.0435 22.4964C51.0435 23.2817 51.1322 23.877 51.3095 24.2824C51.4868 24.6624 51.8542 24.9284 52.4115 25.0804C52.9942 25.207 53.8302 25.2704 54.9195 25.2704ZM71.2794 28.2344V12.2364H67.4034V8.85437H71.2794V3.23037H75.3074V8.85437H79.8294V12.2364H75.3074V28.2344H71.2794ZM90.0903 28.5384C88.7476 28.5384 87.6456 28.3864 86.7843 28.0824C85.9483 27.753 85.3023 27.2717 84.8463 26.6384C84.4156 26.005 84.1243 25.2197 83.9723 24.2824C83.8203 23.345 83.7443 22.243 83.7443 20.9764V8.85437H87.7723V19.3804C87.7723 20.647 87.8103 21.6604 87.8863 22.4204C87.9876 23.155 88.1776 23.7124 88.4563 24.0924C88.7349 24.447 89.1403 24.675 89.6723 24.7764C90.2296 24.8777 90.9643 24.9284 91.8763 24.9284C92.8896 24.9284 93.7003 24.8017 94.3083 24.5484C94.9163 24.295 95.3596 23.915 95.6383 23.4084C95.9423 22.9017 96.1323 22.2684 96.2083 21.5084C96.2843 20.7484 96.3223 19.8617 96.3223 18.8484V8.85437H100.388V28.2344H96.6643L96.5123 25.6504H96.2463C95.9676 26.2584 95.5623 26.7777 95.0303 27.2084C94.5236 27.639 93.8649 27.9684 93.0543 28.1964C92.2436 28.4244 91.2556 28.5384 90.0903 28.5384Z" fill="#4B0081"/>
<path d="M106.875 28.2344V2.09037H118.579C120.226 2.09037 121.556 2.29304 122.569 2.69837C123.582 3.10371 124.355 3.68637 124.887 4.44637C125.444 5.18104 125.812 6.06771 125.989 7.10637C126.192 8.14504 126.293 9.29771 126.293 10.5644C126.293 11.755 126.204 12.8697 126.027 13.9084C125.85 14.9217 125.482 15.821 124.925 16.6064C124.393 17.3664 123.608 17.9617 122.569 18.3924C121.53 18.823 120.162 19.0384 118.465 19.0384H111.169V28.2344H106.875ZM111.169 15.3904H116.831C118.022 15.3904 118.972 15.3144 119.681 15.1624C120.39 15.0104 120.897 14.7444 121.201 14.3644C121.53 13.9844 121.746 13.4904 121.847 12.8824C121.948 12.2744 121.999 11.5017 121.999 10.5644C121.999 9.62704 121.948 8.85437 121.847 8.24637C121.771 7.61304 121.568 7.11904 121.239 6.76438C120.935 6.38437 120.441 6.11837 119.757 5.96637C119.073 5.81437 118.136 5.73837 116.945 5.73837H111.169V15.3904ZM136.036 28.5384C134.719 28.5384 133.604 28.361 132.692 28.0064C131.805 27.6517 131.134 27.069 130.678 26.2584C130.222 25.4224 129.994 24.295 129.994 22.8764C129.994 21.3817 130.171 20.2037 130.526 19.3424C130.881 18.4557 131.489 17.8224 132.35 17.4424C133.211 17.0624 134.427 16.8724 135.998 16.8724C136.251 16.8724 136.619 16.885 137.1 16.9104C137.607 16.9104 138.177 16.923 138.81 16.9484C139.469 16.9484 140.115 16.961 140.748 16.9864C141.407 16.9864 142.002 16.999 142.534 17.0244V16.1124C142.534 15.1244 142.471 14.3517 142.344 13.7944C142.217 13.237 141.951 12.8317 141.546 12.5784C141.166 12.2997 140.609 12.1224 139.874 12.0464C139.139 11.9704 138.189 11.9324 137.024 11.9324C136.467 11.9324 135.808 11.9577 135.048 12.0084C134.313 12.0337 133.591 12.0717 132.882 12.1224C132.173 12.173 131.628 12.2364 131.248 12.3124V9.12037C132.287 8.91771 133.427 8.77837 134.668 8.70238C135.909 8.60104 137.151 8.55037 138.392 8.55037C139.836 8.55037 141.039 8.63904 142.002 8.81637C142.99 8.99371 143.788 9.27237 144.396 9.65237C145.004 10.0324 145.46 10.5264 145.764 11.1344C146.068 11.7424 146.283 12.477 146.41 13.3384C146.537 14.1744 146.6 15.137 146.6 16.2264V28.2344H142.876L142.724 25.7264H142.496C142.065 26.537 141.483 27.1577 140.748 27.5884C140.039 27.9937 139.266 28.247 138.43 28.3484C137.594 28.475 136.796 28.5384 136.036 28.5384ZM137.822 25.2704C138.455 25.2704 139.025 25.2324 139.532 25.1564C140.064 25.055 140.52 24.903 140.9 24.7004C141.305 24.4724 141.622 24.1684 141.85 23.7884C142.078 23.3577 142.243 22.8637 142.344 22.3064C142.471 21.749 142.534 21.0904 142.534 20.3304V19.6464H136.986C136.15 19.6464 135.504 19.7097 135.048 19.8364C134.617 19.963 134.326 20.229 134.174 20.6344C134.022 21.0397 133.946 21.6604 133.946 22.4964C133.946 23.2817 134.035 23.877 134.212 24.2824C134.389 24.6624 134.757 24.9284 135.314 25.0804C135.897 25.207 136.733 25.2704 137.822 25.2704ZM160.295 36.0624C159.561 36.0624 158.788 36.037 157.977 35.9864C157.192 35.961 156.432 35.923 155.697 35.8724C154.988 35.8217 154.355 35.7584 153.797 35.6824V32.5284C154.709 32.5537 155.495 32.579 156.153 32.6044C156.837 32.6297 157.445 32.6424 157.977 32.6424C158.509 32.6677 158.978 32.6804 159.383 32.6804C160.751 32.6804 161.828 32.5917 162.613 32.4144C163.399 32.237 163.981 31.933 164.361 31.5024C164.741 31.0717 164.969 30.4764 165.045 29.7164C165.147 28.9817 165.197 28.0444 165.197 26.9044V25.7264H164.969C164.716 26.2837 164.336 26.765 163.829 27.1704C163.348 27.5504 162.702 27.8544 161.891 28.0824C161.106 28.285 160.131 28.3864 158.965 28.3864C157.623 28.3864 156.521 28.2344 155.659 27.9304C154.823 27.601 154.177 27.1324 153.721 26.5244C153.291 25.891 152.999 25.1057 152.847 24.1684C152.695 23.231 152.619 22.1417 152.619 20.9004V8.85437H156.647V19.3044C156.647 20.571 156.685 21.5844 156.761 22.3444C156.863 23.079 157.053 23.6237 157.331 23.9784C157.61 24.333 158.015 24.5737 158.547 24.7004C159.105 24.8017 159.839 24.8524 160.751 24.8524C161.765 24.8524 162.575 24.7257 163.183 24.4724C163.791 24.219 164.235 23.839 164.513 23.3324C164.817 22.8257 165.007 22.1924 165.083 21.4324C165.159 20.6724 165.197 19.7857 165.197 18.7724V8.85437H169.263V25.9544C169.263 27.753 169.162 29.2857 168.959 30.5524C168.782 31.8444 168.389 32.8957 167.781 33.7064C167.199 34.517 166.312 35.1124 165.121 35.4924C163.931 35.8724 162.322 36.0624 160.295 36.0624Z" fill="#6FB018"/>
</svg>
