<svg width="170" height="37" viewBox="0 0 170 37" fill="none" xmlns="http://www.w3.org/2000/svg">
<path d="M-9.34601e-05 28.2344V2.09037H8.54991C10.7539 2.09037 12.5526 2.20437 13.9459 2.43237C15.3646 2.63504 16.4792 3.01504 17.2899 3.57237C18.1006 4.12971 18.6832 4.90237 19.0379 5.89038C19.4179 6.87837 19.6586 8.13237 19.7599 9.65237C19.8612 11.1724 19.9119 13.009 19.9119 15.1624C19.9119 17.3157 19.8612 19.1524 19.7599 20.6724C19.6586 22.1924 19.4179 23.4464 19.0379 24.4344C18.6832 25.4224 18.1006 26.195 17.2899 26.7524C16.4792 27.3097 15.3646 27.7024 13.9459 27.9304C12.5526 28.133 10.7539 28.2344 8.54991 28.2344H-9.34601e-05ZM4.29391 24.5864H8.16991C9.58857 24.5864 10.7539 24.561 11.6659 24.5104C12.6032 24.4344 13.3379 24.257 13.8699 23.9784C14.4019 23.6744 14.7946 23.193 15.0479 22.5344C15.3012 21.8757 15.4532 20.951 15.5039 19.7604C15.5799 18.5444 15.6179 17.0117 15.6179 15.1624C15.6179 13.313 15.5799 11.793 15.5039 10.6024C15.4532 9.41171 15.2886 8.48704 15.0099 7.82837C14.7566 7.14437 14.3512 6.66304 13.7939 6.38437C13.2619 6.08037 12.5399 5.90304 11.6279 5.85237C10.7159 5.77637 9.56324 5.73837 8.16991 5.73837H4.29391V24.5864ZM25.5567 28.2344V0.00037384H29.5847V11.2484H29.8507C30.1547 10.6657 30.56 10.1844 31.0667 9.80437C31.5734 9.39904 32.2067 9.09504 32.9667 8.89237C33.752 8.68971 34.702 8.58837 35.8167 8.58837C37.1847 8.58837 38.2867 8.74037 39.1227 9.04438C39.984 9.34837 40.63 9.81704 41.0607 10.4504C41.4914 11.0837 41.7827 11.869 41.9347 12.8064C42.112 13.7437 42.2007 14.8457 42.2007 16.1124V28.2344H38.1347V17.7084C38.1347 16.4417 38.084 15.441 37.9827 14.7064C37.9067 13.9464 37.7294 13.389 37.4507 13.0344C37.172 12.6544 36.754 12.4137 36.1967 12.3124C35.6647 12.211 34.9427 12.1604 34.0307 12.1604C33.0174 12.1604 32.2067 12.287 31.5987 12.5404C31.016 12.7937 30.5727 13.1737 30.2687 13.6804C29.99 14.187 29.8 14.8204 29.6987 15.5804C29.6227 16.3404 29.5847 17.227 29.5847 18.2404V28.2344H25.5567ZM53.1334 28.5384C51.8161 28.5384 50.7014 28.361 49.7894 28.0064C48.9027 27.6517 48.2314 27.069 47.7754 26.2584C47.3194 25.4224 47.0914 24.295 47.0914 22.8764C47.0914 21.3817 47.2687 20.2037 47.6234 19.3424C47.9781 18.4557 48.5861 17.8224 49.4474 17.4424C50.3087 17.0624 51.5247 16.8724 53.0954 16.8724C53.3487 16.8724 53.7161 16.885 54.1974 16.9104C54.7041 16.9104 55.2741 16.923 55.9074 16.9484C56.5661 16.9484 57.2121 16.961 57.8454 16.9864C58.5041 16.9864 59.0994 16.999 59.6314 17.0244V16.1124C59.6314 15.1244 59.5681 14.3517 59.4414 13.7944C59.3147 13.237 59.0487 12.8317 58.6434 12.5784C58.2634 12.2997 57.7061 12.1224 56.9714 12.0464C56.2367 11.9704 55.2867 11.9324 54.1214 11.9324C53.5641 11.9324 52.9054 11.9577 52.1454 12.0084C51.4107 12.0337 50.6887 12.0717 49.9794 12.1224C49.2701 12.173 48.7254 12.2364 48.3454 12.3124V9.12037C49.3841 8.91771 50.5241 8.77837 51.7654 8.70238C53.0067 8.60104 54.2481 8.55037 55.4894 8.55037C56.9334 8.55037 58.1367 8.63904 59.0994 8.81637C60.0874 8.99371 60.8854 9.27237 61.4934 9.65237C62.1014 10.0324 62.5574 10.5264 62.8614 11.1344C63.1654 11.7424 63.3807 12.477 63.5074 13.3384C63.6341 14.1744 63.6974 15.137 63.6974 16.2264V28.2344H59.9734L59.8214 25.7264H59.5934C59.1627 26.537 58.5801 27.1577 57.8454 27.5884C57.1361 27.9937 56.3634 28.247 55.5274 28.3484C54.6914 28.475 53.8934 28.5384 53.1334 28.5384ZM54.9194 25.2704C55.5527 25.2704 56.1227 25.2324 56.6294 25.1564C57.1614 25.055 57.6174 24.903 57.9974 24.7004C58.4027 24.4724 58.7194 24.1684 58.9474 23.7884C59.1754 23.3577 59.3401 22.8637 59.4414 22.3064C59.5681 21.749 59.6314 21.0904 59.6314 20.3304V19.6464H54.0834C53.2474 19.6464 52.6014 19.7097 52.1454 19.8364C51.7147 19.963 51.4234 20.229 51.2714 20.6344C51.1194 21.0397 51.0434 21.6604 51.0434 22.4964C51.0434 23.2817 51.1321 23.877 51.3094 24.2824C51.4867 24.6624 51.8541 24.9284 52.4114 25.0804C52.9941 25.207 53.8301 25.2704 54.9194 25.2704ZM71.2793 28.2344V12.2364H67.4033V8.85437H71.2793V3.23037H75.3073V8.85437H79.8293V12.2364H75.3073V28.2344H71.2793ZM90.0902 28.5384C88.7475 28.5384 87.6455 28.3864 86.7842 28.0824C85.9482 27.753 85.3022 27.2717 84.8462 26.6384C84.4155 26.005 84.1242 25.2197 83.9722 24.2824C83.8202 23.345 83.7442 22.243 83.7442 20.9764V8.85437H87.7722V19.3804C87.7722 20.647 87.8102 21.6604 87.8862 22.4204C87.9875 23.155 88.1775 23.7124 88.4562 24.0924C88.7349 24.447 89.1402 24.675 89.6722 24.7764C90.2295 24.8777 90.9642 24.9284 91.8762 24.9284C92.8895 24.9284 93.7002 24.8017 94.3082 24.5484C94.9162 24.295 95.3595 23.915 95.6382 23.4084C95.9422 22.9017 96.1322 22.2684 96.2082 21.5084C96.2842 20.7484 96.3222 19.8617 96.3222 18.8484V8.85437H100.388V28.2344H96.6642L96.5122 25.6504H96.2462C95.9675 26.2584 95.5622 26.7777 95.0302 27.2084C94.5235 27.639 93.8649 27.9684 93.0542 28.1964C92.2435 28.4244 91.2555 28.5384 90.0902 28.5384Z" fill="white"/>
<path d="M106.875 28.2344V2.09037H118.579C120.226 2.09037 121.556 2.29304 122.569 2.69837C123.582 3.10371 124.355 3.68637 124.887 4.44637C125.444 5.18104 125.812 6.06771 125.989 7.10637C126.192 8.14504 126.293 9.29771 126.293 10.5644C126.293 11.755 126.204 12.8697 126.027 13.9084C125.85 14.9217 125.482 15.821 124.925 16.6064C124.393 17.3664 123.608 17.9617 122.569 18.3924C121.53 18.823 120.162 19.0384 118.465 19.0384H111.169V28.2344H106.875ZM111.169 15.3904H116.831C118.022 15.3904 118.972 15.3144 119.681 15.1624C120.39 15.0104 120.897 14.7444 121.201 14.3644C121.53 13.9844 121.746 13.4904 121.847 12.8824C121.948 12.2744 121.999 11.5017 121.999 10.5644C121.999 9.62704 121.948 8.85437 121.847 8.24637C121.771 7.61304 121.568 7.11904 121.239 6.76438C120.935 6.38437 120.441 6.11837 119.757 5.96637C119.073 5.81437 118.136 5.73837 116.945 5.73837H111.169V15.3904ZM136.036 28.5384C134.718 28.5384 133.604 28.361 132.692 28.0064C131.805 27.6517 131.134 27.069 130.678 26.2584C130.222 25.4224 129.994 24.295 129.994 22.8764C129.994 21.3817 130.171 20.2037 130.526 19.3424C130.88 18.4557 131.488 17.8224 132.35 17.4424C133.211 17.0624 134.427 16.8724 135.998 16.8724C136.251 16.8724 136.618 16.885 137.1 16.9104C137.606 16.9104 138.176 16.923 138.81 16.9484C139.468 16.9484 140.114 16.961 140.748 16.9864C141.406 16.9864 142.002 16.999 142.534 17.0244V16.1124C142.534 15.1244 142.47 14.3517 142.344 13.7944C142.217 13.237 141.951 12.8317 141.546 12.5784C141.166 12.2997 140.608 12.1224 139.874 12.0464C139.139 11.9704 138.189 11.9324 137.024 11.9324C136.466 11.9324 135.808 11.9577 135.048 12.0084C134.313 12.0337 133.591 12.0717 132.882 12.1224C132.172 12.173 131.628 12.2364 131.248 12.3124V9.12037C132.286 8.91771 133.426 8.77837 134.668 8.70238C135.909 8.60104 137.15 8.55037 138.392 8.55037C139.836 8.55037 141.039 8.63904 142.002 8.81637C142.99 8.99371 143.788 9.27237 144.396 9.65237C145.004 10.0324 145.46 10.5264 145.764 11.1344C146.068 11.7424 146.283 12.477 146.41 13.3384C146.536 14.1744 146.6 15.137 146.6 16.2264V28.2344H142.876L142.724 25.7264H142.496C142.065 26.537 141.482 27.1577 140.748 27.5884C140.038 27.9937 139.266 28.247 138.43 28.3484C137.594 28.475 136.796 28.5384 136.036 28.5384ZM137.822 25.2704C138.455 25.2704 139.025 25.2324 139.532 25.1564C140.064 25.055 140.52 24.903 140.9 24.7004C141.305 24.4724 141.622 24.1684 141.85 23.7884C142.078 23.3577 142.242 22.8637 142.344 22.3064C142.47 21.749 142.534 21.0904 142.534 20.3304V19.6464H136.986C136.15 19.6464 135.504 19.7097 135.048 19.8364C134.617 19.963 134.326 20.229 134.174 20.6344C134.022 21.0397 133.946 21.6604 133.946 22.4964C133.946 23.2817 134.034 23.877 134.212 24.2824C134.389 24.6624 134.756 24.9284 135.314 25.0804C135.896 25.207 136.732 25.2704 137.822 25.2704ZM160.295 36.0624C159.561 36.0624 158.788 36.037 157.977 35.9864C157.192 35.961 156.432 35.923 155.697 35.8724C154.988 35.8217 154.355 35.7584 153.797 35.6824V32.5284C154.709 32.5537 155.495 32.579 156.153 32.6044C156.837 32.6297 157.445 32.6424 157.977 32.6424C158.509 32.6677 158.978 32.6804 159.383 32.6804C160.751 32.6804 161.828 32.5917 162.613 32.4144C163.399 32.237 163.981 31.933 164.361 31.5024C164.741 31.0717 164.969 30.4764 165.045 29.7164C165.147 28.9817 165.197 28.0444 165.197 26.9044V25.7264H164.969C164.716 26.2837 164.336 26.765 163.829 27.1704C163.348 27.5504 162.702 27.8544 161.891 28.0824C161.106 28.285 160.131 28.3864 158.965 28.3864C157.623 28.3864 156.521 28.2344 155.659 27.9304C154.823 27.601 154.177 27.1324 153.721 26.5244C153.291 25.891 152.999 25.1057 152.847 24.1684C152.695 23.231 152.619 22.1417 152.619 20.9004V8.85437H156.647V19.3044C156.647 20.571 156.685 21.5844 156.761 22.3444C156.863 23.079 157.053 23.6237 157.331 23.9784C157.61 24.333 158.015 24.5737 158.547 24.7004C159.105 24.8017 159.839 24.8524 160.751 24.8524C161.765 24.8524 162.575 24.7257 163.183 24.4724C163.791 24.219 164.235 23.839 164.513 23.3324C164.817 22.8257 165.007 22.1924 165.083 21.4324C165.159 20.6724 165.197 19.7857 165.197 18.7724V8.85437H169.263V25.9544C169.263 27.753 169.162 29.2857 168.959 30.5524C168.782 31.8444 168.389 32.8957 167.781 33.7064C167.199 34.517 166.312 35.1124 165.121 35.4924C163.931 35.8724 162.322 36.0624 160.295 36.0624Z" fill="#6FB018"/>
</svg>
